<?xml version="1.0" standalone="no"?>
<!DOCTYPE svg PUBLIC "-//W3C//DTD SVG 20010904//EN"
 "http://www.w3.org/TR/2001/REC-SVG-20010904/DTD/svg10.dtd">
<svg version="1.0" xmlns="http://www.w3.org/2000/svg"
 width="630.000000pt" height="630.000000pt" viewBox="0 0 630.000000 630.000000"
 preserveAspectRatio="xMidYMid meet">

<g transform="translate(0.000000,630.000000) scale(0.100000,-0.100000)"
fill="#000000" stroke="none">
<path d="M2462 4592 c-13 -9 -5 -159 18 -330 6 -40 10 -91 10 -113 l0 -39 50
0 c33 0 50 4 51 13 0 6 0 38 -1 69 l-1 56 43 20 c90 40 121 93 97 165 -16 50
-91 134 -136 153 -36 15 -111 18 -131 6z m153 -139 c32 -48 32 -78 -1 -99 -33
-22 -40 -12 -47 62 -9 86 6 98 48 37z"/>
<path d="M2822 4570 c-53 -33 -66 -76 -58 -205 8 -138 18 -173 56 -210 27 -26
40 -30 101 -33 74 -5 123 9 135 36 16 39 21 113 14 212 -11 144 -23 186 -60
205 -44 23 -147 20 -188 -5z m126 -88 c15 -15 20 -40 24 -126 3 -59 4 -116 1
-127 -7 -24 -44 -34 -71 -20 -23 12 -29 40 -38 164 -6 80 -4 95 10 110 23 22
51 22 74 -1z"/>
<path d="M4052 4573 c-57 -28 -66 -59 -59 -209 8 -202 38 -244 172 -244 122 0
142 33 132 224 -12 215 -30 246 -145 246 -41 0 -80 -7 -100 -17z m124 -87 c17
-13 19 -29 22 -138 3 -103 1 -126 -12 -137 -21 -18 -62 -6 -77 21 -18 33 -25
234 -9 253 16 19 50 19 76 1z"/>
<path d="M2033 4568 c-6 -7 -13 -33 -16 -58 -4 -25 -18 -117 -31 -205 -14 -88
-21 -164 -17 -168 5 -5 28 -7 52 -5 40 3 44 6 47 31 3 26 6 27 56 27 51 0 54
-1 60 -30 5 -28 9 -30 48 -30 24 0 49 4 55 8 10 6 -3 58 -52 211 -36 112 -70
210 -76 217 -15 18 -113 19 -126 2z m98 -210 c10 -40 19 -74 19 -75 0 -2 -16
-3 -36 -3 -32 0 -36 2 -31 23 3 12 9 48 12 80 4 32 9 56 12 53 2 -2 13 -37 24
-78z"/>
<path d="M3442 4563 c-5 -10 -15 -58 -22 -108 -7 -49 -21 -139 -31 -200 -9
-60 -14 -114 -9 -118 4 -5 27 -7 51 -5 40 3 44 6 47 31 3 26 6 27 57 27 51 0
54 -1 60 -30 6 -28 10 -30 48 -30 75 0 75 -3 7 211 -35 107 -69 204 -76 217
-12 18 -23 22 -69 22 -42 0 -56 -4 -63 -17z m102 -211 c9 -35 16 -66 16 -68 0
-2 -13 -4 -30 -4 -34 0 -36 12 -24 104 8 58 17 50 38 -32z"/>
<path d="M3098 4565 c-5 -5 -8 -26 -8 -47 0 -35 2 -38 28 -38 50 0 52 -7 58
-156 7 -193 5 -186 62 -182 l47 3 -1 45 c0 25 -2 97 -5 160 l-4 115 38 3 c36
3 37 4 37 42 0 31 -4 39 -24 44 -41 10 -221 19 -228 11z"/>
<path d="M3700 4526 c0 -44 1 -46 29 -46 16 0 33 -6 39 -13 6 -7 14 -83 18
-170 l7 -158 50 3 51 3 -4 105 c-2 58 -4 130 -5 160 l0 55 38 3 c36 3 37 4 37
42 0 46 -2 46 -152 56 l-108 7 0 -47z"/>
<path d="M3032 3871 c-172 -43 -338 -158 -433 -301 l-16 -24 -156 132 c-85 73
-163 132 -171 132 -10 0 -33 -34 -61 -90 -25 -49 -50 -90 -55 -90 -5 0 -30 5
-55 12 -39 11 -48 10 -55 -2 -13 -20 -12 -217 0 -241 10 -18 24 -19 246 -19
185 0 235 -3 230 -12 -21 -51 -90 -277 -117 -386 -34 -131 -34 -132 -62 -132
-46 0 -94 55 -102 116 -9 68 -13 76 -32 72 -26 -5 -23 -100 6 -155 22 -44 79
-83 121 -83 25 0 25 9 -4 -190 -35 -236 -39 -303 -26 -419 30 -277 149 -462
386 -602 150 -89 308 -129 503 -129 188 0 331 35 479 118 163 91 264 193 334
337 86 180 98 397 38 738 -11 62 -20 115 -20 118 0 4 18 9 39 13 78 12 128 80
118 162 -5 52 -16 67 -41 58 -13 -5 -15 -15 -10 -54 7 -56 -5 -84 -46 -105
-42 -22 -69 -19 -75 8 -14 63 -26 164 -31 272 -7 173 -23 283 -49 342 -89 202
-291 359 -523 408 -93 20 -269 18 -360 -4z m385 -52 c84 -21 155 -55 240 -115
62 -44 163 -149 163 -169 0 -21 -398 -75 -550 -75 -140 0 -590 51 -621 70 -9
6 -2 22 30 64 73 95 168 162 294 208 138 50 291 56 444 17z m-1022 -180 c204
-171 204 -170 10 -84 -93 42 -174 80 -179 86 -11 9 27 99 41 99 5 0 62 -46
128 -101z m-145 -95 c89 -26 195 -61 234 -80 l71 -33 -238 2 -239 2 -1 78 c-1
42 1 77 4 77 3 0 79 -21 169 -46z m510 -89 c421 -61 630 -60 993 4 94 17 99
17 108 0 5 -10 9 -22 9 -27 0 -12 -179 -56 -321 -78 -252 -40 -615 -11 -907
72 -47 13 -51 17 -42 34 7 14 18 19 33 15 12 -2 69 -11 127 -20z m-52 -100
c229 -56 343 -69 567 -69 226 0 325 12 508 60 65 17 102 23 109 16 5 -5 14
-85 19 -178 10 -169 24 -280 75 -559 23 -126 27 -178 27 -325 0 -162 -2 -182
-27 -265 -68 -224 -238 -388 -494 -476 -350 -121 -803 -8 -1004 248 -132 169
-179 382 -144 653 41 315 88 530 172 788 43 132 49 143 68 137 12 -3 67 -17
124 -30z"/>
<path d="M2910 3206 c0 -35 84 -104 105 -86 24 20 18 36 -29 74 -51 43 -76 46
-76 12z"/>
<path d="M3502 3184 c-44 -37 -54 -67 -25 -78 23 -9 108 75 100 98 -10 25 -30
19 -75 -20z"/>
<path d="M2806 3109 c-21 -16 -26 -29 -26 -64 0 -35 5 -48 26 -64 37 -29 85
-27 118 5 78 78 -30 192 -118 123z"/>
<path d="M3589 3117 c-44 -34 -49 -83 -13 -126 61 -73 177 -4 144 85 -6 15
-18 33 -28 40 -21 17 -82 17 -103 1z"/>
<path d="M3176 2994 c-12 -32 13 -44 93 -44 84 0 105 8 99 36 -3 17 -14 19
-94 22 -78 2 -93 0 -98 -14z"/>
<path d="M2626 2464 c-9 -23 -8 -24 14 -24 11 0 20 2 20 4 0 12 -13 36 -20 36
-4 0 -11 -7 -14 -16z"/>
<path d="M2402 2348 c-22 -22 -14 -86 13 -113 29 -30 41 -31 55 -6 15 29 12
56 -11 95 -22 38 -37 44 -57 24z"/>
<path d="M2657 2201 c-19 -46 -12 -61 29 -61 42 0 46 25 10 67 l-25 28 -14
-34z"/>
<path d="M2519 2003 c-13 -36 -6 -58 36 -115 30 -41 40 -48 69 -48 44 0 60 20
51 62 -12 55 -28 76 -78 102 -60 32 -65 32 -78 -1z"/>
<path d="M2927 1706 c-7 -17 18 -40 33 -31 15 9 12 32 -6 39 -21 8 -21 8 -27
-8z"/>
<path d="M4410 3324 c-128 -82 -175 -124 -140 -124 6 0 59 31 118 69 58 39
108 68 110 66 2 -1 -20 -44 -48 -94 -29 -50 -50 -96 -48 -103 3 -7 22 -13 44
-14 21 -1 62 -2 89 -3 l50 -2 -82 -42 c-46 -23 -83 -47 -83 -54 0 -6 36 -34
80 -60 94 -56 90 -58 -66 -44 -68 5 -113 5 -119 0 -18 -17 13 -26 113 -33 53
-3 130 -9 170 -12 88 -8 95 6 24 51 -26 16 -71 45 -101 64 l-55 34 108 54 c63
32 106 59 103 66 -2 8 -42 14 -119 17 l-115 5 63 110 c63 108 71 130 57 138
-5 2 -73 -38 -153 -89z"/>
<path d="M1680 3393 c0 -5 29 -60 65 -123 52 -94 61 -115 47 -117 -9 -2 -60
-4 -112 -5 -72 -2 -95 -6 -95 -17 0 -7 44 -36 97 -65 54 -28 98 -53 98 -56 0
-3 -43 -32 -96 -65 -52 -32 -97 -62 -100 -67 -11 -18 31 -19 187 -6 121 10
164 17 167 27 4 12 -17 13 -129 7 l-134 -7 35 24 c19 13 56 36 83 51 26 15 47
32 47 36 0 5 -37 28 -82 52 l-83 43 89 5 c49 3 91 10 93 15 1 6 -22 53 -51
105 -30 52 -53 96 -51 98 1 2 52 -29 111 -67 103 -67 134 -82 134 -63 0 14
-25 32 -163 120 -117 75 -157 94 -157 75z"/>
</g>
</svg>
