<?xml version="1.0" standalone="no"?>
<!DOCTYPE svg PUBLIC "-//W3C//DTD SVG 20010904//EN"
 "http://www.w3.org/TR/2001/REC-SVG-20010904/DTD/svg10.dtd">
<svg version="1.0" xmlns="http://www.w3.org/2000/svg"
 width="1280.000000pt" height="1628.000000pt" viewBox="0 0 1280.000000 1628.000000"
 preserveAspectRatio="xMidYMid meet">

<g transform="translate(0.000000,1628.000000) scale(0.100000,-0.100000)"
fill="#000000" stroke="none">
<path d="M6166 15689 c-58 -46 -75 -142 -34 -194 30 -39 79 -58 115 -44 98 37
118 157 37 228 -41 37 -80 40 -118 10z"/>
<path d="M6290 15336 c0 -47 44 -340 70 -465 11 -52 20 -95 20 -97 0 -1 -13 3
-30 9 -36 14 -49 3 -30 -26 7 -12 31 -64 52 -116 21 -52 45 -105 53 -118 17
-25 50 -31 58 -10 7 19 -13 256 -24 285 -8 21 -12 22 -25 11 -11 -9 -17 -10
-22 -1 -4 6 -22 98 -40 204 -46 270 -61 341 -72 352 -7 7 -10 -3 -10 -28z"/>
<path d="M6937 13760 c-92 -24 -125 -53 -188 -167 -15 -27 -20 -29 -127 -41
-202 -22 -435 -104 -712 -248 -160 -84 -341 -194 -437 -266 -48 -36 -82 -54
-92 -50 -9 3 -45 24 -81 46 -146 89 -360 178 -360 149 0 -5 71 -43 158 -85 86
-42 178 -93 205 -113 l47 -38 -107 -111 c-224 -231 -381 -476 -515 -806 -96
-235 -93 -221 -79 -313 19 -125 62 -262 149 -474 l21 -52 -82 0 c-121 1 -200
-34 -305 -135 -92 -88 -151 -187 -167 -278 -4 -28 -11 -38 -24 -38 -10 0 -81
16 -157 36 -186 48 -275 64 -294 54 -22 -12 11 -23 248 -84 l204 -52 3 -144
c2 -85 12 -195 24 -265 25 -144 24 -135 8 -135 -8 0 -112 35 -233 79 -276 99
-264 96 -264 78 0 -18 85 -54 325 -138 99 -34 185 -67 192 -73 6 -6 24 -58 38
-116 14 -58 40 -152 56 -209 17 -57 28 -105 26 -108 -3 -2 -112 -9 -244 -14
-299 -11 -380 -28 -540 -111 -152 -80 -374 -317 -498 -533 -10 -17 -18 -17
-175 13 -188 36 -361 62 -372 55 -13 -7 -9 -21 10 -28 9 -3 118 -24 241 -46
123 -22 233 -45 244 -50 14 -8 18 -18 13 -39 -8 -44 -165 -385 -187 -409 -13
-14 -32 -21 -56 -21 -19 0 -91 -7 -159 -17 -117 -15 -168 -32 -152 -49 7 -7
305 23 320 32 32 20 -24 -91 -88 -174 -102 -133 -96 -122 -90 -182 10 -86 9
-89 -31 -136 -101 -119 -176 -225 -228 -325 l-57 -111 5 -241 c6 -336 4 -330
197 -601 170 -239 213 -280 346 -327 69 -25 182 -30 236 -11 62 22 115 84 139
164 13 41 26 68 33 65 99 -37 118 -34 182 25 50 46 84 104 84 141 0 30 -36 77
-58 77 -18 1 -52 23 -52 34 0 6 59 2 137 -10 30 -4 32 -3 52 51 34 90 25 161
-25 207 -11 9 -49 28 -86 41 -96 36 -115 52 -147 121 -53 112 -73 214 -78 396
l-5 166 36 44 c73 90 74 104 29 239 -33 99 -35 231 -3 325 18 56 24 64 50 70
44 8 550 20 550 13 0 -4 -22 -90 -49 -191 -87 -324 -113 -472 -131 -741 -13
-182 -1 -432 24 -556 20 -95 134 -444 183 -559 20 -47 65 -138 101 -203 37
-68 61 -122 56 -127 -5 -4 -85 -31 -179 -60 -258 -78 -325 -101 -325 -111 0
-22 108 2 353 80 84 27 162 51 173 55 18 5 34 -9 98 -89 42 -52 79 -101 82
-108 10 -26 -271 -276 -431 -384 -77 -53 -112 -86 -96 -91 27 -9 377 246 485
354 30 30 61 54 70 54 9 0 81 -61 160 -136 79 -74 181 -165 226 -201 l82 -65
-54 -38 c-29 -21 -109 -73 -178 -116 -416 -257 -527 -356 -698 -617 -116 -178
-357 -670 -381 -777 -32 -146 -20 -616 19 -744 64 -206 270 -371 648 -520 216
-85 397 -122 665 -136 300 -17 487 -2 657 52 160 51 239 98 272 161 11 22 21
37 23 35 1 -1 20 -32 41 -68 80 -139 244 -322 357 -399 171 -116 393 -158 785
-148 313 8 400 31 717 191 201 102 346 193 481 302 266 215 500 542 598 834
52 156 96 416 96 567 0 217 -96 596 -208 818 -50 100 -94 162 -225 315 -64 74
-115 135 -114 136 1 0 52 33 114 73 l112 71 48 -30 c90 -57 162 -62 182 -12 6
15 18 63 26 107 21 107 88 367 114 436 24 64 46 97 57 86 4 -4 2 -98 -4 -210
-14 -227 -15 -409 -3 -479 18 -108 123 -186 229 -170 40 5 126 80 152 131 35
70 100 398 100 509 0 28 4 52 9 52 10 0 21 -124 21 -252 0 -70 5 -108 15 -129
35 -67 135 -92 179 -44 36 39 83 133 106 215 28 98 38 321 20 453 -28 206 -81
331 -210 492 -45 56 -85 116 -90 137 -6 21 -24 67 -40 104 -17 36 -30 75 -30
86 0 11 29 95 64 187 134 349 296 892 296 991 0 11 4 20 8 20 4 0 77 -17 162
-39 260 -65 327 -74 293 -40 -7 7 -107 36 -224 65 -117 30 -214 56 -217 58 -2
3 -8 37 -13 78 -26 207 -123 375 -307 534 -46 39 -90 80 -97 91 -9 13 -27 120
-46 276 l-31 256 45 78 c57 96 91 185 108 281 7 41 18 76 25 79 7 2 63 -9 126
-26 252 -68 428 -97 428 -71 0 13 17 8 -230 65 -113 26 -233 56 -266 66 -67
21 -74 30 -74 105 0 22 -9 74 -19 115 -56 218 -212 436 -407 572 -62 43 -86
66 -97 95 -25 62 -60 201 -54 216 7 18 84 31 337 56 250 25 340 38 340 52 0
14 -146 6 -400 -21 -102 -11 -211 -22 -243 -25 l-59 -5 -23 52 c-41 89 -41
102 -5 134 71 62 70 102 -10 360 -144 467 -373 898 -682 1284 -115 144 -340
334 -578 490 -74 48 -151 99 -170 112 -30 20 -37 32 -47 82 -7 32 -24 75 -39
96 -31 45 -111 102 -174 125 -53 19 -209 27 -263 14z m232 -56 c64 -18 118
-51 154 -94 31 -36 34 -61 12 -94 -9 -13 -16 -39 -17 -57 -1 -54 -8 -80 -18
-74 -6 3 -10 27 -10 53 0 58 -16 45 -27 -23 l-8 -50 -55 -8 c-107 -14 -257 13
-292 54 -13 15 -15 26 -7 52 12 42 12 47 -5 47 -8 0 -17 -15 -20 -35 -4 -19
-12 -37 -18 -41 -7 -5 -9 5 -4 32 13 70 16 76 39 70 12 -4 65 -14 117 -23 137
-23 300 0 300 43 0 12 -7 13 -37 7 -61 -13 -223 -7 -292 11 -69 18 -142 54
-148 73 -7 19 80 63 143 72 67 9 116 6 193 -15z m-439 -220 c0 -34 46 -76 125
-114 98 -47 177 -64 290 -64 112 1 200 27 241 71 27 29 39 27 128 -25 452
-263 820 -669 1083 -1197 104 -208 222 -517 284 -740 l33 -119 -47 -40 c-41
-37 -241 -135 -252 -124 -2 2 -31 96 -64 208 -93 318 -249 750 -272 750 -11 0
3 -41 94 -298 114 -317 204 -632 191 -666 -4 -10 -18 -16 -38 -16 -43 0 -50
16 -137 318 -110 387 -256 806 -303 874 -26 36 -20 -2 10 -75 85 -201 313
-939 330 -1067 l7 -50 -33 0 c-59 0 -160 22 -180 39 -14 12 -25 53 -45 166
-32 179 -133 584 -205 820 -95 316 -228 601 -359 775 -89 119 -269 322 -307
346 -64 42 -27 -21 76 -131 264 -281 412 -553 550 -1009 94 -312 194 -740 207
-885 l6 -73 -24 7 c-62 18 -272 106 -521 218 -416 188 -536 231 -850 301 -321
72 -543 95 -1010 103 -337 6 -358 7 -358 24 0 28 173 362 225 434 197 277 542
636 805 839 67 52 98 82 88 84 -42 8 -210 -132 -454 -380 -189 -191 -327 -348
-406 -459 -108 -150 -278 -454 -278 -496 0 -41 -73 -74 -86 -38 -8 19 105 264
175 380 100 167 222 317 455 564 65 67 115 125 112 128 -28 29 -455 -453 -575
-650 -56 -91 -153 -288 -181 -364 -20 -54 -26 -63 -48 -63 -23 0 -24 3 -19 35
10 61 171 375 265 515 306 459 650 742 1116 916 137 51 189 79 194 107 5 27
-25 21 -113 -23 -44 -22 -89 -40 -101 -40 -56 0 -426 -208 -589 -330 -171
-129 -418 -401 -569 -628 -64 -96 -219 -390 -263 -499 -19 -48 -24 -53 -52
-53 -17 0 -31 2 -31 4 0 15 97 250 131 318 86 172 126 230 368 528 34 41 61
79 61 85 -1 15 -147 -141 -223 -238 -115 -147 -255 -392 -328 -571 -19 -49
-44 -95 -55 -102 -26 -17 -64 -1 -64 26 0 32 54 156 142 329 43 84 77 156 74
158 -11 12 -76 -98 -167 -284 -55 -112 -106 -203 -113 -203 -7 0 -27 5 -45 11
-46 16 -41 47 35 215 36 79 64 150 61 157 -6 18 -31 -25 -103 -179 -54 -114
-64 -131 -59 -94 31 197 291 628 514 851 303 303 869 605 1316 702 11 3 46 5
78 6 55 1 57 0 57 -25z m-1918 -1679 c33 -14 95 -32 136 -40 102 -21 454 -34
927 -35 l389 0 199 -41 c260 -53 490 -110 602 -149 110 -39 436 -173 600 -247
212 -96 317 -139 450 -183 72 -23 133 -45 137 -49 3 -3 -87 -51 -200 -105
-628 -302 -839 -359 -1382 -373 -653 -16 -1192 96 -1496 313 -156 110 -335
365 -403 574 -33 101 -61 239 -61 303 0 68 7 71 102 32z m26 -671 c20 -6 22
-12 22 -75 0 -174 -121 -760 -199 -970 l-22 -57 -132 41 c-72 22 -137 45 -143
51 -15 15 -52 244 -60 371 -7 108 6 249 31 333 34 114 168 255 268 283 79 22
195 33 235 23z m3891 -199 c46 -124 49 -141 24 -129 -10 4 -82 9 -159 12
l-141 4 -17 74 c-22 100 -21 121 8 139 29 19 90 22 110 6 8 -6 17 -24 20 -39
19 -78 38 -132 46 -132 15 0 12 38 -9 112 -20 71 -18 81 24 90 32 7 50 -20 94
-137z m-3730 43 c80 -86 189 -169 296 -225 159 -82 452 -175 738 -234 139 -29
172 -32 387 -36 129 -2 298 0 375 4 77 5 145 8 151 6 6 -2 19 -21 30 -41 l19
-37 3 42 c3 40 5 42 43 48 23 4 45 3 51 -3 5 -5 16 -38 24 -73 23 -100 37 -99
29 3 l-7 86 38 11 c22 6 56 11 76 11 43 0 52 -12 63 -80 10 -62 24 -95 34 -84
6 5 4 41 -4 84 -8 47 -10 81 -4 92 13 23 109 50 109 31 1 -38 42 -269 50 -277
15 -15 13 53 -5 159 -24 146 -28 138 83 168 53 14 53 15 76 -106 10 -51 21
-99 26 -107 19 -31 21 2 4 92 -9 51 -19 105 -21 120 -5 27 0 30 141 99 85 42
151 68 156 63 4 -5 16 -45 25 -89 25 -112 54 -205 65 -205 14 0 14 0 -22 148
-39 165 -37 173 54 221 36 20 69 33 73 29 13 -13 56 -202 51 -223 -3 -12 -30
-55 -60 -96 -102 -140 -145 -261 -131 -367 4 -26 24 -117 45 -202 47 -189 73
-327 99 -526 27 -208 57 -278 154 -366 l41 -37 -69 -63 c-95 -87 -151 -166
-176 -249 -28 -91 -25 -293 5 -349 58 -111 162 -208 253 -237 45 -14 59 -24
67 -45 12 -33 28 -32 36 2 4 17 16 27 38 34 56 16 63 -2 72 -161 10 -161 7
-143 21 -143 8 0 10 45 7 160 l-5 160 51 30 51 29 8 -22 c5 -12 12 -195 17
-407 5 -234 13 -395 19 -410 8 -18 10 89 8 398 -2 273 1 422 7 422 6 0 27 -17
48 -37 l38 -37 0 -621 0 -621 -45 -44 -45 -44 -1 179 c0 184 -10 257 -22 180
-4 -22 -7 -110 -7 -196 l0 -157 -52 -44 c-29 -24 -58 -47 -65 -51 -8 -5 -10
37 -7 170 7 227 -10 213 -31 -26 -14 -165 -29 -230 -55 -246 -26 -16 -31 22
-26 185 5 159 -3 269 -17 210 -3 -14 -10 -110 -16 -213 -11 -210 -16 -227 -76
-247 -20 -7 -37 -10 -39 -8 -1 1 2 89 7 194 9 183 6 264 -12 264 -15 0 -21
-73 -21 -273 l0 -198 -35 -15 c-19 -7 -39 -14 -44 -14 -5 0 -7 81 -4 203 3
112 2 221 -2 243 l-8 39 -8 -35 c-4 -19 -13 -125 -19 -235 -6 -110 -13 -206
-15 -212 -3 -8 -23 -13 -55 -13 l-50 0 0 158 c0 182 -9 317 -21 305 -5 -5 -11
-100 -15 -213 -4 -113 -10 -216 -14 -229 -8 -30 -78 -60 -92 -39 -4 7 -8 130
-8 273 0 239 -8 327 -23 263 -7 -29 -23 -601 -19 -686 3 -76 42 -170 95 -229
76 -84 207 -128 364 -121 82 3 100 8 164 41 l72 36 -7 -37 c-3 -20 -18 -116
-32 -212 -24 -161 -25 -182 -13 -259 l13 -84 -39 -34 c-21 -18 -42 -33 -47
-33 -9 0 -7 55 13 379 8 142 7 172 -6 160 -7 -8 -22 -172 -36 -382 l-12 -187
-71 -45 -71 -44 -3 39 c-2 22 4 111 12 197 18 178 21 358 6 332 -6 -10 -17
-93 -25 -185 -37 -402 -38 -407 -108 -440 -28 -13 -52 -22 -54 -20 -2 1 8 115
22 252 23 231 31 373 21 363 -8 -8 -25 -125 -51 -359 -30 -267 -35 -287 -81
-306 -18 -8 -36 -14 -39 -14 -9 0 -5 102 10 226 24 201 29 311 16 298 -7 -6
-23 -99 -37 -205 -13 -107 -29 -225 -35 -262 l-11 -68 -59 -29 -59 -30 0 27
c0 16 7 91 15 168 17 169 19 243 5 229 -5 -5 -21 -102 -36 -214 -14 -113 -29
-209 -34 -214 -10 -10 -130 -36 -130 -27 0 3 7 60 15 126 30 241 10 276 -25
43 -30 -195 -27 -188 -66 -204 -66 -28 -70 -24 -62 63 17 189 1 199 -27 17
l-17 -112 -82 -16 c-194 -37 -563 -62 -796 -52 -346 14 -711 97 -1060 241
-230 95 -549 285 -750 446 -143 115 -319 309 -429 472 -51 76 -31 76 26 1 72
-97 279 -296 403 -389 399 -296 817 -518 1196 -635 196 -61 470 -110 610 -110
110 0 83 17 -46 30 -124 13 -409 68 -533 105 -264 76 -520 190 -777 344 -389
234 -659 450 -803 642 -31 42 -57 79 -57 82 0 13 61 38 78 32 9 -3 31 -24 47
-46 48 -66 195 -196 195 -173 0 4 -50 58 -111 120 l-111 113 70 35 69 35 66
-87 c81 -108 246 -291 319 -354 94 -80 187 -140 280 -180 92 -39 218 -78 253
-78 20 1 20 1 1 15 -11 8 -58 27 -105 41 -167 51 -268 109 -411 235 -110 96
-369 391 -370 420 0 3 17 13 37 23 43 21 43 21 95 -77 78 -146 255 -260 506
-329 63 -17 106 -21 242 -22 174 0 282 15 410 56 150 48 176 70 367 323 199
262 300 367 508 523 140 105 163 129 196 197 51 106 36 200 -42 258 l-27 19
-50 -35 c-28 -19 -84 -48 -124 -65 -275 -115 -436 -116 -601 -4 -30 20 -82 56
-116 79 -79 53 -120 59 -286 45 -166 -14 -198 -8 -344 70 l-116 63 -90 0 c-49
0 -160 -3 -245 -5 -135 -4 -159 -3 -187 13 -18 9 -85 67 -150 128 -184 174
-285 249 -335 249 -38 0 -86 -44 -98 -92 -23 -83 4 -161 125 -358 162 -265
257 -488 339 -796 l45 -169 -22 -17 c-43 -34 -59 -33 -92 5 -77 91 -271 499
-365 772 -48 139 -71 195 -80 195 -46 0 207 -619 367 -898 36 -62 62 -119 59
-127 -6 -16 -77 -55 -100 -55 -24 0 -61 53 -125 180 -110 214 -185 425 -228
638 -14 70 -18 138 -18 337 0 244 9 367 41 545 17 100 121 530 133 548 9 14
119 3 271 -29 100 -20 247 -65 254 -78 3 -4 -9 -66 -25 -137 -36 -149 -36
-228 0 -308 71 -161 213 -227 491 -227 111 0 168 5 245 21 73 16 138 22 240
23 132 1 146 -1 255 -33 103 -31 128 -34 240 -35 143 0 168 8 250 82 74 67
102 134 108 260 5 120 -4 165 -58 280 -50 108 -128 225 -232 354 -118 145
-173 223 -268 379 -45 74 -101 159 -123 189 -46 59 -117 111 -154 111 -31 0
-29 12 11 79 19 31 49 86 67 124 18 37 36 67 39 67 3 0 12 -33 18 -72 31 -182
151 -337 325 -423 116 -57 188 -75 297 -75 207 0 408 105 518 270 49 73 97
204 117 317 19 110 19 280 0 362 -39 162 -156 301 -327 386 -93 46 -96 47
-214 52 -67 3 -150 1 -189 -5 -139 -22 -292 -123 -393 -261 -32 -42 -61 -78
-66 -81 -4 -3 -21 31 -36 75 -15 45 -49 123 -75 175 -63 122 -123 182 -241
241 l-89 44 -135 0 -135 0 -83 -38 c-46 -22 -85 -37 -87 -35 -2 2 3 32 11 68
19 91 30 260 16 260 -6 0 -14 -21 -17 -47 -34 -267 -51 -323 -120 -410 -28
-34 -51 -61 -52 -60 -1 1 7 33 17 71 47 166 94 526 71 540 -17 11 -27 -26 -40
-154 -22 -212 -127 -664 -176 -760 -12 -24 -60 -49 -72 -37 -2 2 16 67 41 143
78 244 148 567 181 837 4 31 10 57 12 57 3 0 35 -32 72 -72z m3351 66 c0 -8
-542 -272 -675 -329 -200 -85 -483 -154 -728 -176 -155 -14 -715 -15 -827 -1
-96 12 -234 41 -227 49 3 2 65 -3 139 -11 393 -46 835 -42 1115 9 292 54 438
106 888 321 296 141 315 150 315 138z m53 -134 c10 -46 16 -89 13 -96 -2 -6
-39 -35 -82 -63 -53 -36 -80 -49 -87 -42 -6 6 -21 50 -33 98 -19 74 -20 91
-10 108 14 20 153 87 171 81 6 -1 18 -40 28 -86z m277 -144 c83 -15 172 -47
270 -96 209 -105 396 -315 492 -554 32 -79 33 -85 33 -226 -1 -141 -2 -148
-36 -241 -45 -120 -106 -215 -205 -319 -147 -154 -278 -233 -416 -251 -44 -6
-133 -9 -197 -7 -95 4 -127 9 -178 31 -73 30 -123 63 -123 81 0 7 41 31 92 52
133 56 192 113 264 258 64 130 79 202 69 344 -11 168 -52 271 -135 344 -95 84
-297 158 -429 158 -95 0 -101 16 -42 108 63 96 79 99 260 47 242 -69 324 -134
381 -301 26 -75 60 -267 61 -347 0 -70 11 -108 23 -88 22 35 -8 361 -43 462
-25 75 -75 152 -123 194 -45 38 -206 109 -340 149 -48 15 -90 32 -94 38 -11
17 85 101 150 133 49 24 117 41 171 43 11 1 54 -5 95 -12z m-3119 -232 c90
-47 185 -135 223 -204 15 -28 26 -54 23 -56 -2 -3 -34 15 -69 40 -126 88 -248
121 -417 113 -126 -6 -207 -29 -304 -87 -38 -23 -71 -39 -74 -36 -4 3 2 24 12
46 21 47 111 135 175 173 59 34 183 58 282 53 65 -3 87 -10 149 -42z m1174
-179 c198 -79 332 -248 355 -446 12 -102 13 -149 2 -149 -4 0 -24 39 -45 86
-49 113 -96 182 -171 250 -71 65 -207 135 -311 160 -91 22 -286 23 -372 2 -35
-8 -63 -12 -63 -9 0 10 96 66 155 91 97 42 145 50 265 47 98 -3 125 -8 185
-32z m-1195 -21 c90 -30 195 -99 249 -161 49 -57 94 -148 95 -188 0 -46 -43
-242 -71 -320 -35 -97 -107 -236 -146 -278 -31 -34 -34 -35 -120 -40 l-88 -5
45 48 c24 26 57 72 73 101 24 47 28 65 28 139 0 99 -18 142 -91 220 -57 61
-127 92 -220 98 -139 9 -251 -55 -311 -176 -24 -50 -28 -69 -28 -147 0 -78 4
-97 28 -147 52 -106 146 -168 265 -176 40 -3 75 -8 78 -13 2 -4 -10 -16 -27
-25 -98 -50 -318 83 -394 240 -41 83 -45 195 -15 382 43 278 49 291 173 376
160 109 300 130 477 72z m2806 -59 c165 -48 248 -105 300 -207 52 -103 75
-288 50 -407 -23 -109 -94 -249 -153 -301 -58 -51 -195 -120 -239 -120 -27 0
-34 5 -47 38 -20 50 -34 123 -52 275 -18 149 -47 303 -75 401 -22 78 -18 95
12 53 21 -29 58 -54 58 -39 0 5 -23 40 -51 78 -65 87 -91 144 -87 192 2 27 9
40 28 49 42 21 158 16 256 -12z m-1833 -90 c120 -31 260 -119 363 -226 74 -78
104 -129 139 -234 24 -69 27 -92 23 -171 -5 -123 -41 -198 -147 -305 -108
-109 -210 -156 -361 -166 -245 -15 -474 115 -581 331 l-44 89 0 207 0 206 43
87 c51 104 85 140 153 162 108 36 313 46 412 20z m-2063 -131 c119 -37 160
-55 160 -72 0 -9 -29 -77 -65 -151 -45 -91 -69 -131 -76 -124 -12 12 -99 319
-99 350 0 13 5 21 13 18 6 -2 37 -11 67 -21z m272 -103 c-4 -43 -55 -157 -227
-511 -179 -369 -237 -497 -326 -715 -54 -134 -75 -175 -90 -175 -29 0 464
1182 564 1350 44 75 85 101 79 51z m95 -12 c23 -23 -62 -228 -255 -616 -115
-229 -222 -469 -282 -633 -23 -63 -46 -121 -52 -127 -6 -7 -28 -13 -50 -13
-34 0 -39 3 -33 18 4 9 22 58 40 107 51 142 104 261 250 565 76 157 175 366
222 465 79 168 124 245 142 245 4 0 12 -5 18 -11z m579 -48 c94 -43 156 -142
162 -259 4 -66 1 -79 -28 -138 -103 -210 -393 -218 -504 -13 -34 61 -46 164
-27 231 17 60 73 134 121 158 84 43 207 52 276 21z m-575 -308 c16 -79 66
-170 128 -232 60 -60 171 -124 234 -135 20 -4 37 -12 37 -17 0 -6 -27 -47 -59
-92 -84 -116 -137 -208 -263 -461 -61 -122 -111 -222 -112 -223 -1 -1 -49 13
-106 32 -58 18 -166 43 -240 55 -74 11 -147 24 -162 28 l-26 7 39 100 c21 55
53 136 70 180 18 44 83 188 146 320 63 132 153 323 201 424 l87 183 8 -58 c4
-33 12 -82 18 -111z m-397 16 c6 -6 -117 -301 -178 -430 -31 -65 -46 -74 -160
-95 -129 -24 -185 -43 -289 -97 -168 -87 -242 -159 -369 -362 l-64 -100 -179
-7 c-98 -4 -187 -9 -197 -11 -10 -3 -18 -2 -18 3 0 18 243 535 281 597 93 153
216 279 352 363 81 50 283 126 372 140 57 9 440 8 449 -1z m1286 -300 c87 -19
109 -44 281 -301 89 -133 196 -285 238 -336 144 -177 172 -217 221 -317 86
-172 99 -286 50 -417 -25 -67 -95 -150 -154 -181 -36 -19 -55 -22 -161 -21
-103 1 -131 5 -200 29 -111 38 -317 46 -497 19 -149 -23 -369 -25 -448 -5
-179 45 -280 159 -280 317 0 119 78 352 205 609 167 341 350 562 495 601 56
16 190 17 250 3z m2955 -304 c289 -52 581 -137 724 -210 135 -69 311 -252 368
-387 42 -96 36 -337 -11 -513 -51 -191 -252 -792 -309 -927 l-15 -37 -64 16
c-107 26 -292 63 -314 63 -11 0 -28 6 -38 13 -18 13 -17 19 12 138 64 256 108
551 99 653 -10 108 -75 235 -179 350 -97 107 -211 178 -374 231 -86 28 -174
34 -174 11 0 -21 19 -31 107 -54 97 -25 153 -47 153 -61 0 -28 -166 -49 -252
-32 -160 34 -268 201 -256 399 6 107 51 202 139 296 35 38 73 72 84 77 29 13
139 3 300 -26z m-4571 -141 c23 -9 21 -22 -23 -136 -62 -162 -57 -156 -110
-162 -71 -9 -513 -28 -518 -22 -3 3 6 25 21 50 71 122 259 219 506 261 91 16
104 17 124 9z m-14 -359 c0 -9 -18 -87 -39 -173 -88 -348 -119 -559 -128 -847
-6 -231 -1 -280 48 -485 66 -272 181 -580 281 -752 18 -31 30 -60 26 -64 -32
-31 -198 277 -283 526 -181 529 -181 872 1 1555 24 94 52 189 60 213 15 42 34
56 34 27z m118 6 c11 -7 9 -24 -12 -92 -54 -182 -119 -490 -142 -681 -23 -187
-24 -541 -1 -667 36 -195 160 -517 277 -716 34 -58 60 -113 58 -123 -2 -9 -16
-21 -31 -27 -38 -13 -48 1 -146 200 -90 182 -114 246 -171 453 -100 361 -111
589 -49 1012 40 273 108 570 145 628 15 22 48 29 72 13z m-848 -19 c0 -5 -7
-31 -15 -58 -8 -27 -19 -91 -24 -143 -6 -51 -12 -95 -15 -98 -2 -3 -42 7 -87
22 -86 29 -233 55 -311 55 -27 0 -48 2 -48 5 0 12 69 141 86 163 21 26 76 36
284 51 63 4 118 9 123 10 4 0 7 -3 7 -7z m-255 -293 c108 -25 223 -84 253
-129 27 -41 24 -81 -10 -117 -29 -31 -45 -29 -147 12 -105 42 -228 71 -336 80
-89 8 -108 19 -126 72 -13 39 -4 55 44 80 68 35 181 36 322 2z m5861 -156 c11
-26 14 -95 14 -330 0 -402 -13 -620 -41 -681 -15 -36 -22 -43 -29 -32 -15 27
-23 444 -15 795 l7 339 25 -29 c14 -17 31 -44 39 -62z m-5891 -82 c33 -12 96
-40 141 -62 l80 -41 -4 -143 c-8 -269 55 -504 150 -563 18 -11 63 -32 100 -47
36 -14 74 -35 83 -44 24 -28 29 -81 11 -124 -14 -34 -18 -37 -56 -37 -53 0
-186 28 -222 46 -34 17 -38 17 -38 0 0 -18 59 -69 143 -126 78 -52 96 -83 73
-127 -18 -37 -91 -103 -112 -103 -19 0 -83 43 -155 105 -46 39 -159 185 -159
205 0 3 19 15 43 27 61 30 126 80 138 106 11 24 8 32 -54 182 -14 33 -33 110
-42 170 -9 61 -25 167 -35 238 -19 128 -35 171 -79 211 -12 11 -27 16 -37 12
-15 -6 -15 -8 0 -29 36 -48 50 -99 81 -287 40 -235 39 -231 78 -354 l31 -98
-20 -36 c-39 -73 -121 -107 -259 -107 -109 0 -170 25 -216 88 -35 49 -61 133
-57 183 l3 37 34 -48 c83 -116 163 -165 278 -173 77 -5 133 9 133 34 0 11 -21
14 -94 13 -207 -1 -291 89 -321 341 -8 66 -17 125 -21 131 -15 24 -24 -13 -34
-130 -5 -67 -12 -127 -16 -132 -3 -5 -5 -42 -5 -83 0 -102 26 -160 103 -231
74 -69 138 -90 243 -82 38 4 75 3 81 -1 5 -4 24 -32 41 -62 17 -30 53 -88 82
-129 55 -80 70 -128 52 -167 -9 -20 -18 -24 -54 -24 -59 0 -183 33 -249 66
-214 107 -399 337 -479 594 -20 64 -24 96 -24 225 l0 151 54 107 c88 174 213
315 302 338 56 14 217 3 284 -20z m1255 -241 c40 -20 94 -67 265 -230 56 -52
123 -106 150 -120 71 -35 159 -38 292 -10 155 33 203 23 339 -67 122 -81 251
-101 404 -62 107 27 142 19 237 -53 134 -101 204 -134 312 -147 137 -17 331
28 509 118 78 39 80 40 97 21 20 -23 30 -93 21 -146 -10 -50 -80 -123 -236
-244 -162 -126 -292 -262 -468 -492 -199 -259 -221 -277 -397 -323 -210 -54
-502 -57 -656 -5 -100 34 -228 97 -285 140 -57 44 -119 128 -153 205 -12 28
-45 130 -72 228 -27 97 -65 221 -85 275 -48 129 -201 443 -275 565 -67 108
-104 187 -118 247 -16 70 9 58 96 -45 85 -100 159 -220 188 -303 54 -155 167
-282 297 -333 l62 -24 56 -105 c73 -138 106 -185 180 -253 79 -73 161 -102
295 -101 135 0 226 26 357 105 l67 41 109 -13 c183 -21 338 17 573 137 202
104 375 251 408 345 18 51 -6 40 -55 -26 -79 -109 -195 -195 -392 -294 -160
-80 -268 -113 -390 -119 -58 -3 -135 1 -178 7 l-75 13 -62 -41 c-185 -120
-388 -153 -533 -87 -105 48 -223 194 -270 333 -12 34 -27 69 -33 77 -7 8 -43
25 -79 37 -92 30 -121 45 -165 88 -51 48 -100 131 -146 244 -40 100 -124 231
-220 342 -34 39 -61 76 -61 83 0 18 46 15 90 -8z m-1844 -732 c31 -62 73 -137
92 -167 118 -178 321 -313 536 -357 104 -21 103 -21 78 -46 -62 -63 -296 -7
-413 99 -84 76 -264 339 -318 466 -22 50 -42 117 -35 117 2 0 29 -51 60 -112z
m6759 -73 c171 -52 202 -67 222 -109 9 -20 14 -38 11 -41 -3 -3 -46 5 -94 19
-115 32 -286 65 -397 75 -48 5 -90 11 -94 15 -10 10 29 48 72 68 55 26 131 19
280 -27z m-135 -120 c118 -19 265 -59 337 -90 63 -29 137 -101 213 -210 97
-141 141 -269 161 -465 26 -263 -32 -508 -136 -576 -21 -14 -26 -14 -53 0 -46
24 -52 57 -52 296 0 207 1 219 21 244 16 20 19 30 11 38 -17 17 -89 -8 -108
-37 -10 -16 -23 -83 -35 -187 -35 -303 -99 -566 -133 -555 -20 7 -37 176 -32
322 5 142 22 256 56 375 24 86 29 119 19 126 -14 8 -36 -36 -67 -131 -60 -182
-73 -336 -51 -572 10 -98 10 -125 -1 -138 -31 -37 -133 0 -172 63 -28 45 -34
164 -18 347 23 278 25 400 6 450 -24 62 -47 60 -85 -7 -51 -89 -144 -394 -170
-554 -17 -111 -51 -136 -71 -52 -17 69 -7 222 20 318 26 90 84 215 134 289 41
61 44 71 16 71 -45 0 -148 -193 -196 -365 -24 -86 -28 -119 -28 -233 l0 -134
-24 29 c-65 78 -75 102 -80 182 -5 91 2 140 64 417 24 111 44 213 44 228 0 55
-53 18 -64 -45 -13 -71 -95 -149 -185 -176 -65 -18 -194 -13 -278 12 -72 21
-142 72 -175 125 -35 57 -52 151 -37 198 15 45 50 59 197 78 216 28 371 95
482 210 36 36 85 79 109 95 43 28 51 29 155 29 61 0 154 -7 206 -15z m-3807
-1600 c55 -30 87 -53 87 -63 0 -28 -38 -82 -58 -82 -51 0 -224 75 -274 118
-16 13 -16 17 -1 46 8 17 25 44 35 59 l20 28 51 -29 c29 -16 91 -51 140 -77z
m-610 -34 c7 -7 -8 -35 -50 -88 l-60 -78 -114 -8 c-132 -9 -167 -4 -148 19 7
8 67 52 133 96 l120 80 55 -5 c29 -3 59 -11 64 -16z m87 -45 c-14 -51 -8 -69
44 -114 l35 -30 -77 -112 c-42 -62 -82 -115 -90 -118 -7 -2 -33 5 -56 17 -24
11 -48 21 -54 21 -17 0 -130 -109 -137 -131 -5 -14 6 -40 35 -84 l42 -64 -39
-62 c-33 -54 -38 -71 -38 -119 1 -47 6 -64 28 -93 36 -47 100 -77 166 -77 53
0 54 1 130 75 l77 74 78 -20 c91 -23 119 -20 142 19 9 15 32 50 50 78 46 69
44 87 -16 130 -27 20 -50 40 -50 45 0 11 111 166 144 202 18 19 32 26 48 23
170 -35 166 -36 220 38 21 29 28 50 28 85 0 52 -27 106 -58 115 -29 9 -34 33
-17 67 19 37 41 37 137 3 107 -39 168 -72 168 -91 0 -56 -420 -626 -551 -748
-185 -174 -409 -240 -622 -186 -191 49 -267 132 -267 292 0 102 32 177 145
345 154 227 350 482 362 470 3 -3 0 -25 -7 -50z m3410 9 c123 -29 254 -77 281
-104 35 -35 143 -340 127 -357 -4 -3 -55 16 -115 44 -180 83 -285 116 -513
162 l-135 27 -3 70 -3 70 88 32 c48 18 104 41 123 51 43 23 66 24 150 5z m368
-130 c118 -175 176 -429 189 -821 7 -206 -1 -263 -54 -419 -39 -113 -141 -325
-177 -369 -13 -16 11 42 54 129 122 246 155 373 153 595 -1 266 -96 698 -198
899 -45 90 -32 84 33 -14z m-815 -353 c0 -191 -5 -406 -11 -478 -9 -125 -11
-136 -51 -217 -94 -194 -215 -339 -341 -406 -144 -77 -350 -81 -491 -10 -126
63 -231 237 -259 427 -13 89 -13 393 0 523 14 141 49 352 61 364 5 5 51 10
102 10 l92 0 0 -30 c0 -29 -1 -30 -57 -35 -31 -3 -61 -10 -66 -15 -28 -29 -58
-208 -43 -248 11 -28 76 -66 114 -67 26 0 28 -15 14 -130 l-12 -105 -65 -5
c-57 -4 -66 -8 -77 -30 -28 -58 -42 -234 -23 -271 12 -22 62 -49 138 -74 41
-13 58 -25 77 -54 35 -57 79 -88 140 -102 75 -17 119 -2 189 62 51 47 62 52
138 66 156 28 161 31 181 93 24 72 33 180 18 208 -16 30 -68 55 -98 47 l-24
-6 7 128 c4 70 10 137 15 149 4 11 32 33 63 48 44 22 57 34 67 63 14 44 8 196
-10 216 -7 9 -30 18 -52 22 l-39 7 0 69 0 68 53 15 c183 52 233 63 242 54 6
-6 9 -136 8 -356z m-1964 291 c-32 -64 -256 -400 -366 -548 -279 -376 -545
-496 -879 -399 -47 13 -102 33 -123 44 -47 24 -138 106 -129 115 4 4 26 -9 49
-30 58 -52 128 -81 239 -101 246 -42 472 37 667 234 61 62 254 317 403 532
110 160 151 213 157 206 3 -3 -6 -26 -18 -53z m184 21 c97 -25 202 -87 227
-135 11 -20 0 -58 -60 -216 l-32 -83 -91 82 c-51 44 -127 105 -170 135 -87 61
-86 60 -39 143 34 61 62 90 85 90 10 0 46 -7 80 -16z m-1453 -14 c13 -8 13
-13 -3 -42 -35 -65 -108 -153 -140 -171 -32 -17 -276 -43 -326 -35 -16 2 -5
20 70 106 99 112 123 132 177 143 55 10 205 10 222 -1z m433 -16 c77 -40 217
-127 217 -136 0 -12 -142 -209 -163 -226 -11 -10 -27 -7 -73 14 -92 41 -194
103 -194 120 0 18 159 244 172 244 5 0 23 -7 41 -16z m2457 -66 c0 -35 -4 -69
-9 -76 -4 -7 -26 -18 -47 -23 -56 -13 -374 -12 -424 1 -36 10 -41 14 -36 33 3
12 6 27 6 34 0 24 43 34 243 59 111 13 207 26 212 28 6 3 20 5 33 5 21 1 22
-3 22 -61z m-871 12 c35 -5 66 -11 69 -14 11 -12 -40 -53 -80 -65 -23 -7 -98
-38 -166 -68 -68 -30 -126 -52 -129 -50 -6 7 31 90 57 126 11 16 20 43 20 61
l0 32 83 -7 c45 -4 111 -11 146 -15z m1522 -106 c134 -33 255 -77 384 -139
137 -65 190 -103 204 -147 12 -39 42 -270 36 -276 -2 -3 -86 42 -185 98 -220
124 -352 184 -527 240 l-133 42 0 109 0 109 63 -6 c34 -3 105 -17 158 -30z
m-1142 -41 c97 -18 313 -23 433 -9 127 14 142 -12 30 -54 -89 -34 -190 -52
-292 -53 -82 0 -108 4 -192 32 -96 33 -138 59 -138 86 0 20 51 19 159 -2z
m-1109 -62 c36 -27 107 -92 159 -146 93 -96 93 -97 88 -138 -9 -60 -46 -177
-57 -177 -5 0 -53 42 -107 93 -54 51 -123 112 -153 137 -102 81 -140 122 -130
139 26 51 102 141 117 141 10 0 47 -22 83 -49z m765 -43 c-3 -51 -9 -101 -11
-110 -3 -10 -61 -44 -137 -81 -73 -36 -177 -94 -232 -130 -55 -36 -102 -63
-104 -61 -2 2 17 71 44 153 46 143 49 149 84 166 148 73 329 155 345 155 17 0
18 -7 11 -92z m2224 -71 c67 -247 75 -304 76 -537 0 -235 -8 -295 -66 -484
-77 -251 -217 -470 -458 -719 -113 -116 -197 -181 -381 -295 -392 -242 -655
-326 -1020 -325 -516 1 -858 191 -1017 566 -19 45 -35 100 -35 122 -1 48 21
175 31 175 3 0 22 -24 41 -52 44 -65 227 -252 300 -305 66 -50 211 -122 300
-152 125 -41 339 -52 585 -30 466 40 907 264 1228 624 212 238 364 531 413
800 25 136 10 432 -32 630 -27 128 -28 133 -11 112 8 -10 29 -69 46 -130z
m-4479 57 c0 -4 -13 -28 -28 -53 -49 -79 -67 -146 -66 -251 0 -78 4 -105 23
-147 56 -127 215 -209 444 -233 188 -19 282 6 450 119 150 101 175 114 202
107 35 -9 146 -106 232 -205 88 -99 162 -210 224 -331 40 -79 43 -91 47 -183
5 -116 -2 -128 -81 -149 -76 -19 -333 -16 -420 5 -219 54 -447 197 -708 443
-160 151 -218 186 -443 263 -189 65 -287 116 -355 185 l-53 53 69 144 c87 179
107 204 176 218 96 19 287 29 287 15z m3730 -129 c155 -62 383 -178 527 -267
137 -85 133 -77 113 -238 -12 -95 -33 -165 -47 -158 -5 1 -42 25 -83 53 -109
72 -412 223 -580 288 l-145 57 3 148 c2 81 5 153 8 161 7 22 77 7 204 -44z
m-2431 -5 c95 -48 343 -280 356 -333 6 -21 -79 -413 -91 -426 -8 -8 -35 24
-105 127 -88 128 -257 302 -346 356 -35 21 -63 40 -63 44 0 12 141 190 155
196 8 3 15 14 15 24 0 38 23 41 79 12z m-931 -81 c59 -40 109 -73 111 -75 8
-7 -53 -77 -93 -106 -32 -23 -48 -29 -74 -24 -88 14 -144 93 -123 172 13 47
47 104 61 104 6 0 59 -32 118 -71z m1862 -112 l0 -163 -62 -30 c-95 -45 -282
-171 -398 -268 -57 -48 -106 -82 -108 -76 -9 26 62 338 89 392 26 51 134 135
283 218 44 25 168 82 194 89 1 1 2 -72 2 -162z m479 143 c95 -10 255 -2 327
16 l26 7 -8 -84 c-4 -46 -10 -106 -13 -134 l-6 -49 -45 -9 c-54 -10 -194 -2
-345 19 -60 9 -111 17 -113 18 -3 4 18 197 24 219 4 14 12 17 29 13 13 -3 69
-11 124 -16z m-3155 -316 c112 -75 150 -93 321 -154 208 -74 271 -113 471
-294 207 -187 407 -320 561 -372 186 -62 356 -78 516 -47 105 20 117 15 99
-46 -33 -109 -289 -226 -597 -271 -85 -13 -303 -16 -382 -5 -351 47 -695 191
-896 375 -67 61 -241 274 -283 346 -28 47 -29 53 -28 179 0 117 3 138 28 205
38 101 64 150 79 150 7 0 57 -30 111 -66z m3116 42 c58 -9 148 -16 201 -16 53
0 131 -3 174 -7 l78 -6 -44 -23 c-161 -84 -404 -102 -528 -40 -61 31 -121 82
-121 103 0 18 55 15 240 -11z m975 -103 c167 -66 560 -270 634 -330 l24 -19
-66 -130 c-79 -155 -84 -159 -262 -200 -118 -28 -126 -29 -425 -29 -272 0
-319 2 -435 22 -71 13 -148 24 -170 25 l-40 3 66 23 c134 46 298 182 392 325
62 93 120 228 142 330 7 33 4 33 140 -20z m-1415 -92 c0 -55 45 -202 86 -284
68 -135 122 -197 222 -250 l61 -33 -152 -19 c-165 -22 -588 -28 -739 -12 l-78
9 0 82 c0 75 3 87 31 131 71 111 271 276 449 369 58 30 108 52 112 50 4 -3 8
-22 8 -43z m-2797 -479 c269 -320 422 -422 789 -526 223 -64 333 -81 518 -80
244 1 409 39 639 150 63 30 116 53 118 50 7 -6 -90 -64 -168 -99 -315 -144
-651 -166 -1038 -68 -246 63 -431 142 -562 241 -37 27 -106 91 -155 142 -116
123 -280 328 -261 328 2 0 56 -62 120 -138z m-13 -82 c229 -275 350 -365 623
-459 493 -170 901 -173 1284 -10 51 21 99 39 106 39 7 0 26 14 42 30 17 18 32
27 38 21 18 -18 -28 -239 -59 -286 -29 -45 -224 -132 -360 -160 -96 -21 -472
-24 -629 -5 -463 53 -913 272 -1081 524 -54 81 -63 121 -89 396 -7 76 -20 85
125 -90z m3715 -71 c100 -22 135 -24 390 -24 281 0 338 5 548 51 19 4 27 2 27
-7 0 -7 -62 -74 -137 -149 -264 -261 -588 -442 -913 -510 -137 -28 -342 -43
-516 -37 -133 5 -161 9 -242 36 -51 17 -113 41 -139 55 -137 69 -345 251 -438
380 -49 69 -69 112 -84 176 l-9 42 31 -6 c18 -3 93 -11 167 -17 195 -16 464
-4 790 35 19 2 121 3 225 1 152 -2 212 -8 300 -26z m955 -88 c0 -19 -173 -192
-264 -265 -109 -87 -243 -178 -346 -234 -227 -123 -537 -192 -869 -192 -248 0
-383 32 -549 129 -99 57 -235 173 -315 268 -67 78 -132 184 -125 204 2 6 53
-44 113 -112 216 -241 396 -355 650 -411 94 -21 455 -17 580 6 326 59 617 194
887 409 54 42 128 106 165 142 74 70 73 69 73 56z"/>
<path d="M7267 13188 c6 -7 51 -64 102 -127 242 -302 366 -548 520 -1028 64
-199 91 -264 91 -219 0 18 -80 294 -113 391 -76 220 -215 507 -326 671 -98
145 -245 324 -267 324 -12 0 -14 -4 -7 -12z"/>
<path d="M4732 11764 c22 -22 303 -90 430 -104 71 -8 211 -9 448 -5 449 10
605 -7 967 -105 162 -44 163 -44 163 -31 0 15 -100 49 -265 91 -279 71 -314
75 -830 75 -503 0 -522 2 -773 66 -62 16 -123 29 -135 29 -20 0 -20 -1 -5 -16z"/>
<path d="M4770 11715 c0 -10 78 -44 160 -70 231 -73 477 -112 847 -135 87 -5
212 -19 278 -30 68 -11 123 -16 128 -11 26 26 -215 63 -578 91 -286 22 -476
56 -693 124 -109 34 -142 42 -142 31z"/>
<path d="M4850 5765 c53 -57 341 -230 579 -350 375 -187 714 -304 1061 -365
147 -26 600 -42 600 -21 0 6 -1 11 -2 11 -2 0 -93 5 -203 10 -344 16 -573 56
-855 150 -348 115 -665 269 -1007 487 -124 79 -166 103 -184 103 -7 0 -2 -11
11 -25z"/>
<path d="M6263 9816 c-100 -32 -186 -106 -227 -195 -16 -36 -21 -65 -21 -136
0 -78 4 -97 28 -147 59 -120 177 -191 322 -191 162 -1 282 87 335 244 55 162
-20 323 -188 402 -78 37 -179 46 -249 23z m230 -55 c55 -27 121 -90 150 -145
17 -33 22 -59 22 -127 0 -75 -3 -92 -30 -144 -86 -169 -320 -217 -472 -97
-131 104 -150 304 -42 435 80 97 257 134 372 78z"/>
<path d="M5152 8995 c-40 -49 -155 -281 -216 -436 -153 -392 -163 -570 -40
-693 47 -47 138 -89 181 -84 33 4 32 21 -3 32 -84 25 -115 40 -147 73 -94 93
-105 202 -44 410 69 233 167 470 254 615 61 100 69 148 15 83z"/>
<path d="M5208 8883 c-68 -78 -249 -555 -264 -695 -10 -100 29 -212 97 -275
54 -50 225 -94 244 -64 11 19 0 24 -72 33 -124 15 -212 100 -227 221 -14 115
45 323 174 612 39 88 74 166 77 173 8 18 -12 15 -29 -5z"/>
<path d="M3105 9971 c-25 -10 19 -17 215 -31 251 -19 402 -38 417 -54 3 -3 0
-12 -7 -21 -7 -9 -10 -18 -7 -22 4 -3 62 -8 129 -10 140 -5 170 4 128 37 -57
45 -279 118 -242 79 6 -7 12 -16 12 -21 0 -4 -6 -5 -12 -3 -81 30 -586 67
-633 46z"/>
<path d="M2063 8595 c-17 -12 -22 -29 -27 -87 -10 -117 -10 -121 19 -145 44
-39 138 -23 165 26 13 25 13 68 0 76 -5 3 -10 30 -10 60 0 44 -4 57 -22 69
-28 20 -97 21 -125 1z"/>
<path d="M10414 8074 c-61 -30 -94 -141 -60 -202 18 -33 66 -62 103 -62 39 0
77 42 93 102 18 64 -6 140 -51 163 -35 19 -46 18 -85 -1z"/>
<path d="M3235 6071 c-57 -35 -70 -58 -70 -121 0 -53 3 -62 34 -94 19 -19 48
-40 64 -46 28 -9 33 -7 84 43 45 46 53 60 53 91 0 54 -34 115 -75 132 -44 18
-54 18 -90 -5z"/>
<path d="M1883 4234 c-22 -22 -24 -31 -19 -66 5 -31 3 -45 -10 -59 -19 -21
-14 -55 15 -90 16 -20 28 -24 76 -24 50 0 60 3 81 28 25 29 33 90 14 102 -5 3
-10 28 -10 54 0 60 -20 81 -79 81 -32 0 -48 -6 -68 -26z"/>
<path d="M2870 4218 c0 -9 8 -19 18 -23 15 -5 15 -7 2 -14 -25 -14 -92 -20
-370 -36 -293 -17 -369 -28 -260 -38 83 -7 561 10 630 23 29 6 55 10 58 10 3
0 -7 -11 -22 -25 -35 -33 -34 -49 4 -42 52 11 240 105 240 120 0 20 -27 25
-173 33 -111 6 -127 5 -127 -8z"/>
</g>
</svg>
