<svg version="1.2" baseProfile="tiny-ps" xmlns="http://www.w3.org/2000/svg" viewBox="0 0 786 1000" width="786" height="1000">
	<title>bph-svg</title>
	<style>
		tspan { white-space:pre }
		.shp0 { fill: #000000 } 
	</style>
	<g id="Layer">
		<path id="Layer" class="shp0" d="M404 35C409.4 35 413.1 43.6 409.7 48.1C407.1 51.4 404.2 52.2 401.1 50.4C396.5 47.7 395.6 42 399.1 37.6C400.4 35.9 402.1 35 404 35Z" />
		<path id="Layer" class="shp0" d="M399.1 56C399.6 56 400 56.4 400 57C400 59.1 396.8 80.7 396 84C393.8 93.4 393.8 93.4 395.4 92.1C397.4 90.4 399.5 91.6 397.9 93.6C397.3 94.3 395.6 98.2 394.1 102.2C392 107.9 391 109.5 389.5 109.5C387.3 109.5 387.4 110.2 388.5 96.6C389 90.9 389.5 89.1 390.3 89.9C391.8 91.4 392.7 91.3 392.7 89.7C392.7 89.1 393.2 86.2 393.8 83.5C394.4 80.7 395.7 73.4 396.6 67.2C397.5 61.1 398.6 56 399.1 56Z" />
		<path id="Layer" fill-rule="evenodd" class="shp0" d="M362.4 155.6C366.3 157 367.6 158 369.8 162L372.5 166.8L379.4 167.5C389.8 168.5 401.6 172.3 416.6 179.5C429.1 185.4 447.7 196.6 452.6 201.2C454.8 203.1 454.8 203.1 460.6 199.4C467.6 194.9 481 188.9 482.3 189.7C483.6 190.5 482.4 191.2 472.9 195.4C468.1 197.5 462.7 200.4 460.9 202L457.5 204.8L464.8 212.1C476.8 224.2 490.2 245.3 495.1 259.7C496.7 264.4 498.7 269.1 499.5 270.3C500.3 271.5 501 274 501 276C501 281.6 497.3 295.6 493.5 304.2C491.6 308.5 490 312.3 490 312.6C490 312.9 491.8 312.9 494 312.5C499.9 311.5 506.7 314.2 513.2 320C518.9 325.1 524 333.4 524 337.6C524 338.9 524.3 340.1 524.8 340.4C525.2 340.6 531.3 339.3 538.3 337.3C545.4 335.4 551.9 334.1 552.8 334.5C554.3 335.1 554.3 335.3 552.5 336C551.4 336.5 544.8 338.3 537.9 340L525.2 343.2L525.5 350.4C525.6 354.4 525 362 524 367.3L522.3 377L524.4 376.4C525.6 376.1 532.5 373.6 539.8 370.9C554.5 365.5 554 365.6 554 367C554 368.2 552.8 368.7 535.1 375L521.7 379.7L519.8 387.1C518.8 391.2 517.1 397.3 516.1 400.7L514.2 406.8L530.4 407.2C547.4 407.6 552.4 408.7 564 414.6C572.6 418.9 590.5 438.9 593.3 447.3C593.5 447.9 595.8 447.8 599 447.1C609.3 444.8 626.4 442.1 627.2 442.6C628.9 443.7 626.9 444.8 622.3 445.4C619.6 445.8 612.4 447 606.2 448.2C593.4 450.5 594.1 449.5 598.7 460C607.6 480 607 479 610.6 479.1C612.5 479.2 614.3 479.3 614.8 479.4C615.2 479.5 618.8 480 622.8 480.4C628.1 481 630 481.6 630 482.7C630 483.6 629.4 483.9 628.3 483.6C627.3 483.4 623.4 482.8 619.5 482.5C615.7 482.1 611.7 481.6 610.6 481.3C609 480.9 609.2 481.6 612 486.6C613.8 489.9 616.5 493.6 618 495C621.6 498.2 622.5 501.4 621 505C619.8 507.8 620 508.2 625.9 514.7C629.7 518.8 633.8 524.8 636.3 529.9L640.5 538.4L640.5 552.9C640.5 568.5 639.3 574 634.7 580.7C618.6 603.8 616.8 605.9 610 608.9C597.2 614.5 586.6 611.2 583.8 600.7L582.7 596.2L579.6 597.5C575.9 599 574.4 598.6 570.7 595.1C566.4 591.2 564.8 587.6 566 584.6C566.5 583.2 567.6 582 568.3 582C569 582 570.5 581.4 571.6 580.6C573.3 579.3 572.9 579.2 567.8 579.7L562 580.3L560.4 576.5C559.5 574.2 559.1 571.4 559.4 569.6C560 566.5 562.6 563 564.2 563C564.7 563 567.3 562.1 570 560.9C574.1 559.1 575.1 558.1 576.9 554C580.1 546.6 582.1 535.4 581.8 526.7C581.7 520.2 581.3 518.7 579.4 516.9C575.1 512.9 574.6 509.8 577.2 503.9C579.9 497.6 580.2 487.7 577.7 481.9L576.2 478.3L564 477.7C547.9 476.8 541 476.8 541 477.8C541 478.2 542.3 483.1 543.9 488.7C549.8 509.1 552.6 527.8 552.4 545.5C552.3 561.2 551.5 567.3 548.1 578C541.5 599 538.5 606.5 532.8 616.3C530.6 620.1 529 623.3 529.2 623.5C529.4 623.7 536.5 625.9 545 628.5C560.8 633.2 561.8 633.6 560.7 634.6C560 635.3 550.2 632.8 536.3 628.2L527 625.2L521.8 631.8L516.6 638.3L525.3 646.6C530 651.1 537.5 657.2 542 660.2C549.1 664.9 551.4 667 549.4 667C546.8 667 521.7 648.2 518.7 644.1C516 640.3 515 640.7 506.5 649.4C501.9 654 495.6 659.8 492.5 662.1C489.5 664.4 487 666.4 487 666.5C487 667.2 497.4 674.1 507.4 680C531.1 694.1 541.3 705.7 555.8 735.3C561.3 746.4 566.4 757.7 567.1 760.5C569.1 767.7 568.9 797.5 566.7 805.8C564 816.8 553.7 827 537.9 834.4C524.7 840.6 512 844.7 500.4 846.5C489 848.3 463.2 848.6 455 847C441.7 844.5 430.5 839.4 428.6 834.9L427.3 831.9L423.4 838.7C421.3 842.4 416.1 849 411.9 853.3C398.7 866.6 386.6 870.5 358.5 870.5C339.4 870.4 332.3 869 317.3 862C293.9 851 278.2 839.9 265.9 825.4C249.1 805.6 241.8 789.1 238.9 763.6C237.9 755.5 237.9 751.3 238.9 744.6C241.5 725.9 248 706.7 255.2 696.2C257 693.6 261.5 688.1 265.2 683.8L272 676.1L264.9 671.5L257.9 667L255 669C251.3 671.6 246.4 672.6 244.6 671.1C243.8 670.4 242.9 667.6 242.5 664.7C241.7 658.3 236.6 638.9 234.3 633.8C232.2 628.8 231 629.9 231.5 636.3C233 654.9 233.1 671.7 231.8 675.5C230.2 680.4 225.2 684 219.9 684C216.9 684 215.3 683.2 212.2 680.2C208.7 676.9 208 675.4 206.1 667C203.7 656.5 201.9 643 202.6 641.8C202.9 641.4 202.6 641 202.1 641C201.4 641 201 645.1 201 652.5C201 663.5 200.9 664.2 198.5 666.5C196.1 669 191.7 669.8 189.4 668.2C188.7 667.8 186.8 664.7 185 661.2C178.8 649 178.8 627 184.9 610.8C187.2 604.9 188.7 602.5 195.8 594C198.1 591.1 199.8 588.5 199.6 588.1C199.3 587.7 200.4 584.9 201.9 581.7C204.5 576.4 204.5 575.8 203.2 572.8C195.6 555.5 182.1 512.2 182 505.1C182 502.9 181.6 501.9 180.7 502.3C176.6 503.8 153.9 509.2 153.4 508.7C152.2 507.6 154.1 506.2 157.7 505.6C159.8 505.2 165.8 503.7 171.1 502.3L180.7 499.8L181.3 494.1C182.3 482.7 189.9 470.1 201 461.4C204.3 458.8 207 456 207 455.1C207 454.2 207.9 446.8 209 438.6L210.8 423.7L208.3 419.7C204.7 413.9 202.4 408.2 201.5 402.5C201.1 399.7 200.6 397.2 200.4 396.8C200.2 396.4 197.4 397 194.2 398C188.7 399.7 177.6 402.3 169.8 403.6C167.3 404 166 403.8 166 403.1C166 402.5 166.1 402 166.3 402C168.2 401.9 190.9 396.6 195 395.3L200.4 393.5L200.7 388.5C201.6 373.8 213.5 354.7 227.2 346.1C232.5 342.7 232.8 342.4 234.5 335.6C235.5 331.7 236.5 328 236.7 327.4C237.2 326 232.4 325.2 207.5 322.9C200.9 322.3 195.1 321.4 194.5 320.9C193.1 319.5 201.8 319.8 220.5 322C229.8 323.1 237.6 323.7 237.9 323.4C238.2 323.1 239.2 320.9 240.1 318.5C241.8 314.1 241.8 314 239.6 312.2C235 308.6 235 307.4 238.9 293.8C241 286.8 243.4 279.4 244.3 277.3C245.1 275.2 247.3 269.8 249.1 265.2C254.8 250.5 270.9 224.4 283.9 208.8C290.6 200.7 311.1 184.3 322.3 177.9C329.5 173.8 330.5 172.9 330.6 170.4C330.7 163.7 337.5 157.1 346.5 154.9C351.6 153.7 357.5 153.9 362.4 155.6ZM341.5 159.8C335.5 163.1 333 167.2 335.5 169.7C336.6 170.8 337 172.5 336.8 174.7C336.6 176.7 336.8 178 337.5 178C338.2 178 338.5 176.5 338.2 174.2C338 171.4 338.1 170.9 338.9 172C339.5 172.8 340 174.7 340 176.2C340 177.8 340.1 179 340.3 179C346.6 180.2 353.6 180 358 178.4C363.2 176.5 363.4 176.2 361.7 171C361.6 170.7 362 170.3 362.5 170C363.1 169.7 363.6 170.7 363.8 172.2C364 173.8 364.5 175 365 175C365.7 175 364.7 169.3 363.8 168.4C363.6 168.3 361 168.8 358 169.6C350.2 171.7 337 170.3 337 167.3C337 166.2 337.5 166 338.8 166.6C342.5 168.5 355.2 167.6 361.3 165.1C364.5 163.8 366.9 162.2 366.7 161.6C366.5 161 364.8 159.7 362.9 158.8C357.4 155.9 347.7 156.4 341.5 159.8ZM372.4 170.9C375.2 175.4 359.6 183 347.4 183C341.2 183 333.3 180.4 332 177.9C331 176.2 330.4 176.4 323.2 180.6C296.3 196.5 275.5 219.6 258.4 252.4C252.7 263.5 244.4 284.9 240.9 297.9L238.6 306.3L242 309.2C243.9 310.7 245.8 312 246.2 312C246.7 312 249.3 313.1 252 314.4L257 316.8L259.1 309.7C260.2 305.7 262.1 299.3 263.2 295.5C266.2 285.4 276 258.7 277.1 257.5C278.8 255.8 278.1 258.4 272.9 272.5C267.6 287.2 265.4 293.9 261.5 308C259.1 316.9 259.3 318.3 263.5 317.8C265.1 317.5 266.1 315 269.7 302C277.4 273.7 288.9 241.6 290.6 243.3C291 243.6 290.3 246 289 248.6C283.6 260.3 266.7 316 268.2 317.5C269.1 318.5 281.2 316.3 282 315C282.4 314.3 283.1 311.4 283.4 308.6C285.2 295.1 294.5 259.1 300.4 242.7C303.5 234.2 309.6 220.8 313 215C319.1 204.7 338.8 182.4 339.7 184.8C340 185.5 336.7 189.8 332.3 194.3C312.7 215.1 303.4 235.3 292 281.6C288.7 294.8 286 309 286 312.6L286 314.8L292.8 312.3C296.5 311 303.8 307.9 309 305.5C344.3 289.3 346.7 288.4 366 283.6C388.4 278 407.7 275.9 435.8 275.9L456.1 276L455.4 273.7C454.2 269.8 444.8 251.6 442.1 248C428.7 229.9 408.5 208.6 394.5 197.9C384.8 190.5 385.3 191 387.2 191C392.5 191 423.9 221.6 439.1 241.6C445.4 249.8 457 270.5 457 273.5C457 275.4 459.5 277.1 461.3 276.4C463.2 275.7 463.1 275.7 456.8 262.1C450.1 247.7 439.9 234.2 423.5 217.7C419.2 213.5 416 209.7 416.4 209.3C417.9 207.8 441.4 233.8 450.2 246.8C454.8 253.6 464 272.3 464 274.9C464 275.5 464.9 276 466.1 276C468.6 276 468.4 275.2 462.8 263.2C455.7 247.7 447.1 234.9 433.4 219.6C420.3 204.8 400.2 191.6 381.4 185.4C373.9 182.9 370 180.7 370 178.8C370 177.3 372.7 178 377.1 180.5C379.5 181.9 382.4 183 383.4 183C386.9 183 410 195.8 419.3 202.9C431.4 212.1 444.2 226.2 454.9 242.1C459.8 249.5 468.6 266.4 470.8 272.9C471.5 275 472.5 276 473.9 276C475.1 276 476 275.9 476 275.7C476 275.6 474.6 271.9 472.9 267.5C466.9 251.6 460.4 241.1 447.7 226.7C443.9 222.4 441.1 218.6 441.5 218.2C442.2 217.4 450.2 226.3 458.3 236.9C463.8 244.3 475.2 265.6 476.6 271.3C477.4 274.6 479.3 275.7 482 274.4C483.7 273.6 483.5 272.8 479.1 263C476.5 257.2 473.1 250.6 471.6 248.2C470.1 245.8 469.1 243.3 469.3 242.7C469.8 241.1 477 253.7 481.6 264.2C483.8 269.1 485.8 273 486.2 273C486.6 273 488.1 272.5 489.5 272C492.6 270.8 492.5 270.3 486.9 258.1C482.6 248.9 482.6 249 483.9 249C484.6 249 486.1 251.9 492.4 266L494 269.5L493.5 266.2C491.6 253.5 473.8 224.4 460.2 211.8C442.7 195.6 412.6 179 389 172.4C380.5 170 371.4 169.2 372.4 170.9ZM491.1 274.6C482.2 278.5 477.3 279 438 279.4L399.5 279.8L382 283.4C372.4 285.4 360.2 288.4 355 290.1C345.7 293.1 315.2 305.9 305.5 310.8C302.8 312.2 295.6 315 289.5 317L278.5 320.7L297.5 329.9C331.6 346.4 347.2 350 384.7 350.1C424.2 350.1 456.2 341.9 472.7 327.4C478.9 322 487.8 309 491.4 300.1C494.2 293.3 497 281.1 497 276C497 272.6 496.2 272.4 491.1 274.6ZM487.8 316.5C485.1 319.2 493.8 364.8 500.1 381.1L501.1 383.7L509.8 381.1L518.5 378.4L520.3 368C522.9 353 522.2 339.4 518.6 331.8C515.6 325.5 510.8 320.7 504.6 317.9C500.7 316.2 489.1 315.2 487.8 316.5ZM254.6 319.6C253.3 319.2 252.4 321.2 247.3 335.7C246.9 336.6 247.7 336.6 250.5 335.9C252.6 335.3 257.1 335 260.6 335.2L266.9 335.5L268 330.7C269.5 323.7 269.3 322.3 266.8 321.6C261.1 320.1 260.2 320.7 258.9 326.5C258.2 329.6 257.3 332.3 256.8 332.6C255.6 333.4 255.9 329 257.4 324.7C258.6 321.4 258.6 320.8 257.4 320.4C256.6 320.2 255.4 319.8 254.6 319.6ZM484.1 324.5L483.5 320.6L480 324.8C475.5 330.2 468.2 335.8 460.4 339.8C449.5 345.3 427.1 352.1 412 354.5C409.5 354.9 406.6 355.5 405.5 355.7C402.6 356.4 365.3 356.2 361.9 355.5C359.4 354.9 358.9 355.2 358 357.4C356.8 360.7 355.6 360.8 356.2 357.5C356.5 356.1 356.3 355 355.6 355C355 355 353.5 354.7 352.3 354.4C350.4 353.9 350.1 354.4 349 359.4C348.4 362.5 347.5 364.8 347 364.5C346.6 364.3 346.7 362 347.2 359.4C347.8 356.9 347.8 354.5 347.4 354C346.9 353.6 344.6 353 342.3 352.6C337.7 351.9 337.8 351.9 336.5 359.2C336.2 361.3 335.5 363 334.9 363C334.4 363 334.2 362 334.4 360.7C336.3 351.4 336.3 351.1 332.8 350.2C331 349.7 329.2 349.4 328.9 349.6C328.5 349.8 327.9 352.8 327.6 356.2C326.5 365.2 325.8 368.2 324.9 367.3C324.5 366.9 324.8 362.7 325.6 358C326.3 353.3 327 349.4 327 349.2C327 348.9 322.5 347.2 319.6 346.4C317.4 345.9 317.2 346.3 316 353.4C315.3 357.6 314.3 361 313.8 361C312.9 361 313.6 355 315.1 349.1C315.6 347.2 315.7 345.4 315.5 345.1C315.2 344.9 311 342.8 306.1 340.4L297.1 336.2L294.9 345.6C293.7 350.8 292.4 355 291.9 355C290.7 355 290.7 354.6 293 346C295.7 335.5 295.7 335.4 290 332.5L285.1 330L284.1 333.8C281.1 345.3 281 344 285.6 350C294.5 361.6 295.9 369.1 291.6 383C288.9 392 285.5 410.3 284.6 420.8C283.9 428.5 281.4 434.5 276.7 438.9L273.1 442.3L278.5 447.2C286.4 454.4 289.5 461.3 289.5 471.5C289.5 480.9 288.1 484.4 281.5 491.3C278.4 494.6 275.8 496.3 272.6 497.2C269.3 498.1 268 498.9 268 500.2C268 501.2 267.6 502 267 502C266.5 502 266 501.2 266 500.1C266 498.8 265.1 498.1 263.1 497.8C260.5 497.4 260.1 497.7 259.6 500.3C259.3 501.9 259 506.3 259 510.1C259 514.6 258.6 517 257.9 517C257.1 517 256.9 514.1 257.3 507L257.8 497.1L254.5 495.1L251.2 493.2L250.6 496.2C250.3 497.9 250 508.3 249.9 519.4C249.9 530.4 249.5 541.3 249.1 543.5C248.2 547.5 248.2 547.4 248 541.5C247.6 531.9 248 506 248.6 499.7C249.3 493.4 248.5 492.7 244.9 496.6L242.5 499.2L242.5 575L245.3 577.7L248 580.5L248 568.2C248 560.2 248.4 556.1 249 556.5C249.6 556.9 250 562.1 250 568.8L250 580.5L258 587.1L257.3 576C256.9 568.8 257 565 257.7 565C258.3 565 259 570.1 259.4 577.2C260 586.2 260.6 590 261.7 591.2C262.6 592.2 263.6 593 264.1 593C264.5 593 264.6 587.1 264.4 580C264.1 571.5 264.3 567 265 567C265.6 567 266 569.7 266 573.3C266 576.8 266.3 583.1 266.6 587.3C267.2 594 267.5 594.9 269.7 595.9C272.5 597.2 274.3 597.3 273.7 596.2C273.4 595.8 273.1 589.5 272.9 582.1C272.6 572 272.8 568.6 273.8 568.3C274.7 567.9 275 571.3 275 582.8L275 597.8L277.8 598.8L280.5 599.7L280.1 584.9C279.7 565 281.5 565 282.5 584.9L283.2 599.8L286.1 600.2C287.7 600.5 289.2 600.4 289.5 600.2C289.8 599.9 290 593.2 290 585.3C290 576.4 290.4 571 291 571C291.6 571 292 575.9 292 583.7C292 598.1 292.5 601 294.9 601C295.8 601 297.1 601.5 297.8 602.2C299 603.4 299.3 598.1 299 576.2C298.9 570.3 299.3 567 299.9 567C300.6 567 301 570.7 301 577.2C301.1 582.9 301.3 593.2 301.6 600.2C302.1 611.6 302 613.3 300 617.7C296.2 626.4 290.5 630.4 279.9 631.9C272.9 632.8 267.2 631.9 262.1 628.9L258.7 626.9L259.4 630.2C259.8 632 260.8 638.2 261.6 643.9C263.1 653.6 263 656 261.4 661.6C261 663.2 261.6 664.3 264 666L267.1 668.2L266.5 654.9C266.2 647.5 265.7 639.8 265.5 637.7C265.2 635.7 265.4 634 265.9 634C266.4 634 267 638.4 267.4 643.7C267.7 649.1 268.3 657.1 268.6 661.6L269.2 669.6L273.7 672.4C276.1 674 278.2 675.1 278.4 674.9C278.6 674.7 278.2 668.9 277.4 662C275.9 647.5 275.6 638.7 276.8 639.4C277.3 639.7 278 644.2 278.3 649.4C278.7 654.6 279.5 662.9 280.1 667.8C281.2 676.6 281.3 676.8 284.7 678.4C286.7 679.3 288.4 680 288.5 679.8C288.6 679.6 288.1 673.9 287.4 667C285 643.5 284.9 642 285.8 642C286.2 642 287.4 649.5 288.3 658.7C290.8 682.1 290.7 681.7 294.1 682.9C297.6 684.1 297.5 685.3 295.4 667.6C293.9 654.8 293.9 648.3 295.3 652C295.6 652.8 296.6 660.6 297.6 669.2C298.6 678.8 299.8 685 300.4 685C301 685 302.8 685.7 304.4 686.5L307.3 688L306.6 680.8C306.2 676.8 305.6 670.6 305.3 667.1C304.9 663 305 660.9 305.7 661.3C306.2 661.6 307.2 667.8 308 675C308.7 682.2 309.5 688.2 309.9 688.4C310.2 688.6 312.2 689.1 314.4 689.5L318.2 690.3L317.6 686.4C317.3 684.2 316.8 679.3 316.4 675.5C315.4 664.6 317.5 668.9 318.9 680.5C319.5 686 320.4 690.8 320.8 691.2C321.2 691.5 322.8 692.2 324.3 692.6L327.1 693.2L326.4 685.4C325.6 675.5 326.6 676.1 328.1 686.3L329.2 693.9L334.4 695C347.9 697.9 377.8 699.2 393.5 697.6C432.7 693.4 471.4 676.5 500.3 651C507.7 644.5 523.7 624.4 522.6 623.2C522.2 622.8 521.4 623.3 520.9 624.3C517.4 630.5 504.2 643.7 494 651.1C461.7 674.6 433.7 688.1 405 693.9C392.4 696.4 379 697.6 379 696.1C379 695.5 380.7 695 382.9 695C389.5 695 410 691.1 420.5 687.9C438.5 682.3 451.3 676.6 467.5 666.7C492.8 651.3 508.6 638.5 517 626.4L519.9 622.3L517.2 621.1C514.8 620 514.4 620.1 512.5 622.7C509.7 626.7 500.8 635 499.9 634.4C499.5 634.2 502.4 630.8 506.3 626.9L513.5 619.7L509.1 617.6L504.8 615.5L503.1 618C499.2 624.1 486.5 638.2 480.4 643.4C476.7 646.5 471.2 650.4 468.1 651.9C460.8 655.6 448.9 659.3 447.8 658.2C447.3 657.7 449.8 656.6 453.2 655.6C465.8 652.2 473.7 647.4 484.5 636.6C493.6 627.5 503.7 615.3 502.8 614.6C502.7 614.4 501.5 613.8 500.3 613.1C498.2 612.1 497.9 612.3 495.9 616.2C493.1 621.7 489.6 625.9 485.3 628.8C479.2 633 470.7 636.7 463.2 638.5C448.2 642.1 423.3 638.7 413.9 631.8C412.2 630.5 407.2 624.6 402.8 618.5C388.7 599.4 381.7 592.4 364.3 580C359.2 576.4 356 570.6 356 565C356 561.7 356.6 560.2 359 557.8C361.8 555.1 362.2 554.9 363.8 556.3C369.1 560.9 386.3 567 394.2 567C400.1 567 407.7 564 413 559.4C419.4 554 423.6 552.6 430.9 553.5C444.3 555.3 446.9 554.9 455 550C462.2 545.7 462.7 545.5 470 545.6C474.1 545.7 480.5 546.1 484.1 546.5C492.6 547.4 495.8 546 504.2 537.3C512 529.2 521.5 522 524.4 522C525.7 522 527.6 523 528.8 524.3C532.3 528 531.6 535.4 527 543C526.5 543.8 523.8 548.1 521.1 552.6C513.4 565.1 506.9 580.2 502.9 595.3L499.3 609.1L501.8 610.8C504.1 612.3 504.4 612.3 506.2 610.1C511.7 603.2 523.7 577.6 529.2 561.1C532.3 551.5 534 548.1 534 551.2C534 556.7 518.6 593.2 511.2 605.4C508.9 609.1 507 612.6 507 613.1C507 613.5 508.6 614.7 510.6 615.6C514.2 617.3 514.3 617.3 516.1 614.9C519.8 610 526.9 595.2 530.3 585C535.8 568.9 537.3 558.3 536.7 540.5C536 522.3 534.2 510.1 529.3 491.8L525.7 477.9L520.1 478.5C509.9 479.6 495.4 483.3 493.3 485.3C493.1 485.6 493.8 489.2 495 493.4C497.7 503.4 497.5 507.5 494.4 513.9C491.3 520.1 487 523.2 478.7 525.3C471.2 527.3 457.1 527.2 450.6 525.3C447.6 524.3 441.4 523.7 435.5 523.6C427.3 523.5 424.3 524 419 525.9C412.7 528.2 403.7 529.1 398 528C393.2 527.1 387.3 522.2 384.8 517.3C383 513.5 382.5 510.9 382.5 504.9C382.5 498 382.9 496.6 387.1 487.9C389.9 482.1 394.1 475.6 398.1 471C406.4 461.2 412.6 452.5 418.6 442C424 432.5 428.7 427.4 433 426.5L435.9 425.9L433 421.1C431.4 418.5 429.3 414.6 428.3 412.4L426.6 408.5L425.9 413.2C424 425.3 416.8 434.9 405.3 440.5C395.7 445.2 386.7 446.2 377.4 443.5C360.9 438.8 351.9 427.9 348.4 408.5C344.5 386.2 351 371.3 368.7 362.5C374 359.8 375.4 359.5 385 359.5C394.3 359.5 396.1 359.8 401.2 362.2C407.8 365.3 414.7 371.3 418.9 377.7L421.9 382.2L422.6 379.4C424.1 373.4 429.4 362.3 432.6 358.3C434.8 355.6 438.5 352.9 442.7 350.8C448.5 348 450.4 347.5 457 347.5C463.2 347.5 465.5 348 470 350.2C473 351.7 475.5 352.8 475.7 352.7C475.8 352.5 475.5 350.7 475 348.5C473.3 340.6 472.8 332 473.9 332C474.5 332 475 333.3 475 334.9C475 336.4 475.7 341.7 476.5 346.6C477.7 353 478.7 356.2 480.4 358C481.7 359.4 483.5 361.6 484.5 363C485.7 364.8 486 364.9 485.6 363.6C482.4 354.2 478.4 328.2 480 326.6C481.3 325.3 481.7 327 482.4 335C482.9 342.4 486.2 359.4 489 369C493.3 384 493.5 384.5 495.8 384.8C497 385 498 385 498 384.7C498 384.5 496.9 381 495.5 376.9C492 366.8 487.4 347.3 486 337C485.3 332.3 484.5 326.7 484.1 324.5ZM273 321.5C273 322 300.9 335.7 312.8 341.1C322.9 345.7 334 348.8 350 351.6C363.3 354 403.2 354.3 415 352.1C423.6 350.5 429.1 348.6 422 349.6C399.1 352.9 368.3 353.4 351.5 350.6C330.2 347 320.8 343.8 294.2 330.9C273.1 320.7 273 320.7 273 321.5ZM271.5 324C271.1 324 269 333.7 269 335.3C269.1 336.3 275.7 341.1 279.2 342.8C279.9 343.1 281.3 338.6 282.6 332.3C283.2 329.4 283 329.1 277.5 326.6C274.3 325.2 271.6 324 271.5 324ZM236.3 344.6C222.5 351.2 210.5 365.5 205.1 381.6C202.2 390.5 203.4 402.1 208.6 412.8C213.2 422.4 224.3 433.9 234 439C240 442.2 241.3 442.5 251 442.8C259.8 443.1 262.4 442.9 267.1 441.1C270.2 439.9 273.5 438.1 274.4 437.1C275.9 435.4 275.7 435.2 269.9 432.9C261.6 429.6 257.9 426.3 253.8 418.3C249.4 409.9 248.9 407.9 248.9 398.2C248.9 390.3 250.6 383 253.5 378.7C258.3 371.3 271.8 365 283.2 364.9C290 364.8 290.2 364.2 285.9 357.7C282.3 352.3 281.6 352.1 271.1 355C255.7 359.3 251 362.8 247.1 372.8C245.1 377.9 243 390.2 243 397.1C243 399.2 242.6 401 242 401C240.7 401 240.7 394.7 242 384C243.3 373.6 244.2 370.6 248.1 364.6C250.6 360.6 252.3 359.3 258.5 356.4C262.6 354.5 268.9 352.2 272.5 351.2C276.1 350.3 279 349.1 279 348.7C279 346.8 271.5 341 267.2 339.5C258.5 336.6 249.7 338 236.3 344.6ZM448.9 350.9C441.9 353.2 433.8 359.6 431 365C428.3 370.4 428.4 370.5 432.8 367C444.8 357.4 465.3 356.5 478 364.9C480.4 366.6 482.6 367.8 482.7 367.6C482.9 367.4 482.6 366.1 482.1 364.7C480.7 361.2 474.8 355.4 469.8 352.9C465.3 350.6 453.3 349.4 448.9 350.9ZM354 380.1C351.1 385.5 350.6 387.7 350.3 394.5C350 401 350.2 402 351.1 400C351.7 398.6 353.4 394.9 354.8 391.8C362.9 373.7 386.2 364.5 408.3 370.5C410.5 371.1 410.5 371.1 408.5 369.4C407.4 368.5 403.8 366.5 400.5 365C383.1 356.8 362.9 363.4 354 380.1ZM426.4 381.2C424.3 385.3 424.1 386.7 424.9 389.3C425.4 391.1 426.2 394.7 426.6 397.5C427.4 403.5 430.9 412.4 435.6 420.2C438.9 425.6 439.2 425.8 442.8 425.5C444.8 425.4 447.5 425.6 448.7 426.1C451.8 427.3 451.6 426.4 448.1 423.5C446.6 422.1 444.3 418.7 443 415.9C440.3 409.5 440.8 404.2 444.9 397.8C452.3 386.1 471.1 385.5 478.4 396.8C487.8 411 478.5 429 461.8 429C457.6 429 457.6 429 459.8 430.6C464.8 434.1 476.1 428.9 482.4 420.3C487.7 413 488.3 406.9 485.4 390.3C484.5 385.4 483.7 380.8 483.6 380C482.9 376 481.6 374.2 476.5 370.5C473.4 368.3 468.8 365.7 466.2 364.8C452 359.7 433.4 367.3 426.4 381.2ZM270.5 369.7C258.9 373.3 253.7 379.6 251.9 392.5C250.5 402.5 251.3 407.7 255.5 416.5C258 421.8 260 424.4 263.4 426.8C268.2 430.3 275.7 433.3 277.5 432.6C279.2 432 281 425 281.9 414.8C282.9 405.3 285.4 391.8 287.1 387.3C288.6 383.3 288.1 382.5 285.9 385.4C284.8 386.8 283.4 388 282.8 388C281.7 388 281.9 387.8 287.8 380C290.1 376.9 291 374.6 291 372C291 368.6 290.7 368.2 287.9 367.6C282.6 366.6 279.3 366.9 270.5 369.7ZM387.3 374C376 376.4 361.8 387.3 357.3 397C350.9 411.1 352.3 420.8 362.3 431.7C378.5 449.3 409.9 444.1 420.7 422.1C423.3 416.9 423.5 415.7 423.5 403.5C423.5 390.7 423.4 390.4 420.2 384.2C417.4 378.9 416.2 377.5 412.4 375.9C407.3 373.6 393.8 372.6 387.3 374ZM517.3 381.1C515.6 381.3 503.1 385.5 502.6 386C502.3 386.3 504.2 390.8 506.7 396C510.7 404.4 511.3 405.2 512.1 403.2C513 400.9 518 382.5 518 381.5C518 381.2 517.7 381 517.3 381.1ZM495.8 387.5C494.9 388.4 499.1 398.3 507.9 415.9C518.3 436.6 525.5 452.3 530.1 464.5C532.1 470 534.4 474.6 535.1 474.9C535.9 475.1 536.1 474.7 535.6 473.4C535.2 472.3 533.3 467.3 531.4 462.2C527.2 450.7 514.2 420.1 505.6 401.5C499.8 388.8 497.6 385.7 495.8 387.5ZM489.8 389.5C488.5 390.9 495.1 406.1 507.2 429.8C513.4 441.9 521.8 461.4 524.9 471.2C526 474.4 526.6 475 529 475L531.9 475L530 469.7C526.2 459.2 523.7 453.2 517.8 441C507.2 419.2 499.9 403.7 496.4 396.2C493.5 389.8 491.5 387.8 489.8 389.5ZM456.5 391.7C449.2 393.6 443.3 403 444.4 410.9C446.9 428.9 470.6 432.9 478.1 416.5C481.8 408.5 479.3 398.7 472.4 394.1C468.9 391.7 461 390.5 456.5 391.7ZM493.4 405L491.3 400.6L490.8 406.7C490.1 414.5 487.4 420.4 482.1 425.8C477.9 430.1 470.6 434 466.9 434C464.4 434 464.5 434.6 467.9 438.9C472.8 445.1 479.1 456 485.7 469.6L492 482.8L498.8 480.5C502.5 479.2 509.8 477.6 515 476.9C520.2 476.2 524.6 475.6 524.8 475.5C524.9 475.4 524.2 473.3 523.2 470.9C522.1 468.5 520.3 463.6 519.1 460C517.8 456.4 512 443.6 506.1 431.5C500.2 419.4 494.5 407.5 493.4 405ZM514 410.7C514 411.3 524.5 435.5 526.2 438.9C527.3 441 528.7 441.6 534.9 442.6C544.1 444.2 549.9 446.3 557 450.8C564.9 455.7 568.5 459.5 574.2 468.7L579.3 477L584.9 477C588 477 593.5 477.3 597.3 477.7L604 478.3L600.4 470.4C598.4 466.1 595.3 459.2 593.4 455.2C591.5 451.1 590 447.6 590 447.4C590 447.1 587.7 443.4 585 439C577.2 426.9 565.6 417.4 554.4 414C550.6 412.8 546.5 411.4 545.3 410.9C540.8 409.2 514 409 514 410.7ZM432 429.8C430.1 430.7 427.5 433.1 426.3 435C425 436.9 423.7 438.9 423.2 439.5C422.8 440 420 444.3 417 449C410.2 459.7 405.7 465.8 398.9 473.6C390.8 482.9 385 495.2 385 503.2C385 513.5 390.4 522.4 398.4 525C403.3 526.6 413.9 525.8 419.5 523.4C425.4 520.9 437.9 520.5 448.8 522.4C471.9 526.4 487.1 522.6 492.1 511.6C494.9 505.4 494.4 499.9 490.1 486.9C480.8 459.5 464.5 434.4 452.5 429.4C447.6 427.4 436.3 427.6 432 429.8ZM256.5 447C236.3 450.3 216.2 456.2 207.1 461.5C199.6 465.9 188.8 478.1 186.6 484.7C184.2 491.8 184.5 504.4 187.4 515.4C191 528.9 206 573.3 207.5 574.8C207.6 574.9 211 574.2 215 573.1C218.9 572 224.8 570.8 228.1 570.4C234.4 569.7 234.6 569.4 233 564C230.4 555.4 226 530.3 226 524.6C226 517.2 227.2 513.3 231.5 506.5C236.1 499.2 243 492.5 249.1 489.5C260.1 483.9 271 481.4 271 484.4C271 485.3 269.9 486.2 268.3 486.5C262.6 487.7 255 490.1 254.5 491C253.6 492.4 262 494.2 267.5 493.8C274.9 493.2 280.2 489.4 283.6 482.4C288.8 471.7 286.6 460 277.5 450.3C271.7 444.3 272.5 444.4 256.5 447ZM533.4 457.7C536.8 466.9 539.5 473.6 539.9 474.1C540.2 474.5 548.3 475 557.8 475.4L575 476L573.6 473.2C569.6 465.7 558.6 459.6 544.6 457.1C535.5 455.4 532.6 455.6 533.4 457.7ZM528.3 477.6C527.4 478 527.4 478.9 528.1 480.6C530.3 486.6 535.3 508.5 537 519.5C539.6 537.1 539.6 559.6 537.1 569.7C533.2 584.7 527 600.2 520.2 611.2C516.4 617.6 516.2 618.1 518 619C519 619.5 520.3 620 520.8 620C522.1 620 531.4 601.7 534.4 593.1C535.9 589 538.6 579.8 540.4 572.6C544.4 557 545 542.8 542.5 523.5C540 504.2 535.7 484.1 532.8 478.7C531.9 477 530.6 476.7 528.3 477.6ZM535.9 477C535.3 477 535.1 477.8 535.4 478.7C535.7 479.7 537.3 486.3 539.1 493.4C543.6 512.3 545.8 527.7 545.9 543.2C546.1 555.7 545.8 558.1 542.6 571.4C539.4 584.7 531.8 606.4 528.6 611.5C523.6 619.6 522.9 621 524.2 621C525.5 621 526.8 619.1 532 610C536.4 602.4 539.8 593.9 544 580.4C552.2 553.9 551.7 531.9 542.2 496.5C540.5 490.4 538.7 483.6 538.1 481.2C537.4 478.9 536.5 477 535.9 477ZM590.3 479.4L580 478.7L581.5 483.6C582.3 486.3 583 490.7 583 493.4C583 497.6 583.2 498.1 584.8 497.5C591 494.9 599 493 604.6 492.9C608.1 492.8 611 492.6 611 492.4C611 492.2 609.8 489.6 608.3 486.6C606.3 482.5 605 480.9 603.1 480.6C601.7 480.3 595.9 479.8 590.3 479.4ZM586 500.5C580.1 503.5 578.1 506.7 579.8 510.5C581.4 513.9 583.7 514.6 586.9 512.8C591.5 510.1 602.3 507 608.5 506.6C611.8 506.4 615 506.1 615.6 506.1C616.7 506 619 501.8 619 500C619 499.5 617.9 498.3 616.5 497.4C610.9 493.7 596.5 495.2 586 500.5ZM240 501C239.7 501 238.5 502.6 237.2 504.4C234.8 507.9 234.8 507.9 235.2 535.7C235.5 555.4 236 564.5 236.9 567C240.3 575.8 240.5 573.7 240.5 537C240.5 517.2 240.3 501 240 501ZM613.3 510.1C604.9 509.1 597.1 510.8 588.5 515.7L584.1 518.1L584.6 525.8C585.6 538.7 581.8 555.5 576.9 560.1C575.4 561.5 572 563.3 569.5 564C566.9 564.7 564.3 566.2 563.5 567.4C561.9 570 562.7 575.9 564.7 576.7C566.7 577.5 579.1 575.2 580.8 573.8C581.5 573.2 582.3 573 582.7 573.4C583.7 574.4 579.6 578.2 574.1 581.5C567.8 585.3 567.3 587.7 571.6 592.4C573.4 594.4 575.6 596 576.4 596C578 596 586.3 589.6 589.6 585.9C590.7 584.6 592.6 581.9 593.8 580L595.9 576.4L592.9 575.1C588.8 573.3 584 569.1 584 567.4C584 566.6 585.1 563.6 586.5 560.7C589.1 555.5 589.6 553.7 590.5 546.3C590.7 544.2 591.4 540 592 537.1C592.5 534.1 593 530.1 593 528.1C593.1 523.9 597.9 517.2 599.9 518.5C600.8 519 600.6 519.8 599.1 521.4C597.8 522.8 596.6 526 596 529.6C595.5 532.8 594.4 540 593.5 545.5C592.6 551 591 557.8 589.8 560.6C587.9 565.3 587.9 565.9 589.4 568.7C592.3 574.4 606.5 577 614 573.2C618.4 571 622 564.8 621.9 559.5L621.9 555.5L620.2 558C616 564 612.8 566.7 607.7 568.5C602 570.4 595.1 569.8 594.2 567.1C593.9 566.1 594.9 566 599.1 566.5C610.8 567.9 618.7 560.6 619.7 547.6C620.3 539.6 620.8 537 622 537C622.6 537 623 539.5 623 542.5C623 545.4 623.5 550.2 624.1 553C625.8 561 624.6 566.4 619.8 571.6C615.1 576.7 610.7 578.4 603.3 577.8C598 577.3 597.9 577.4 596.6 580.5C595.8 582.2 593.6 585.8 591.6 588.4C587.6 593.6 586.5 596.8 587.5 599.9C588 601.6 588.7 601.8 592.3 601.4C610.2 599.4 625.5 586.2 634 565.5C636.5 559.4 637.4 554.6 637.5 546.9C637.5 538.7 637.3 537.9 633.2 529.8C630.4 524.3 627 519.5 623.5 516C618.9 511.4 617.4 510.6 613.3 510.1ZM517 528.9C514.5 530.9 509.1 536 505 540.1C494.9 550.2 489.8 551.7 477 548.4C469.7 546.5 464.4 547.2 459.8 550.5C450 557.6 440.7 559.7 432.6 556.6C426.6 554.3 422.4 555.2 416.4 560.2C404.8 569.8 393.6 571.5 377.6 566.1C372.9 564.5 367.4 562.2 365.4 560.9C361.8 558.7 361.7 558.7 360.4 560.5C358.4 563.2 358.7 569 360.9 572.6C362 574.4 367 578.9 372.2 582.8C384.5 591.9 390.2 597.9 402 613.5C413.1 628.3 414.9 630.1 420.7 632.3C434 637.4 456.2 638.5 467.5 634.5C487.1 627.7 493.2 621.1 498.1 601.5C501.3 588.3 505.6 576.9 511.5 565C517.9 552.3 518.7 550.7 522.4 545.2C525.6 540.5 529.2 531.1 528.3 529.7C527.1 527.7 512.6 546.7 511.3 551.9C509 561.7 500.2 572.1 492.5 574.2C488.8 575.2 488.2 575.9 484.8 583C479.8 593.4 473.4 600.4 466.9 602.5C455.9 606.2 443 604 432.7 596.8C430.3 595 429.3 595 423.4 595.9C413.3 597.4 403.3 595.2 389.4 588.3C377.7 582.5 367.9 574.9 364 568.4C361.5 564.4 362.3 562.2 364.9 566C370.3 574.2 377.8 579.9 392.2 586.9C404.4 592.8 414.1 594.7 423.1 593.2L430 592L435.4 595.6C444.1 601.3 455.4 603.4 464.4 600.9C469.8 599.4 477.1 592.2 480.9 584.6C482.6 581.1 484 577.6 484 576.7C484 574.6 485.7 573.5 491.4 572C494.1 571.2 497.9 569.3 499.7 567.7C503.1 564.7 508.1 555.9 509.3 551C510.2 547.3 517.5 536.4 522.5 531.1C524.9 528.6 526.6 526.2 526.4 525.8C525.3 524 521.2 525.3 517 528.9ZM637.8 564C637.6 564.1 635.6 568 633.3 572.8C627.5 585.2 619.4 593.7 608.7 599C603.7 601.5 598.2 603.3 594.8 603.8C590.3 604.3 589.3 604.8 589.9 605.8C593.1 611 610.2 606.9 617.1 599.3C625.5 590.3 635.6 574 637.4 566.7C637.7 565.2 637.9 564 637.8 564ZM226.5 573.7C222.9 574.4 208.5 579 207.4 579.8C206.1 580.6 203.7 585 204.2 585.5C204.4 585.7 207 585 210 584C216.1 582 232.6 579 237.7 579C241.7 579 241.8 578.6 238.3 575.5C235.6 573.1 231.7 572.5 226.5 573.7ZM238.6 582.1C229.8 582.2 216.8 584.7 208 588.1C203.7 589.7 201.4 591.5 197.4 596.3C188.2 607.4 184.2 617.7 183.3 632.5C182.6 644.6 184.2 654.8 187.6 660.7C190.9 666.4 193.1 667.5 196.1 665.1C198.3 663.3 198.5 662.6 198.6 648.4C198.7 636.1 198.5 633.3 197.2 632.4C194.7 630.6 196.6 628.9 199.8 630.2C204 632 204.1 632.2 205 642.9C206.4 658.1 210.9 678 213 678C213.6 678 214 677.7 214.1 677.2C214.1 676.8 214.3 675.8 214.4 675C216.6 663.2 215.5 646.7 211.8 634.8C210.6 631.1 210 627.7 210.4 627.3C211.5 626.2 212.8 628.7 215.5 637.5C218.6 647.8 219.4 657.3 218.1 668.3C217.5 673.1 217.3 677.7 217.6 678.5C218.6 681.1 223.9 680.3 227.1 677.1C229.5 674.6 230 673.3 230.1 668.8C230.3 659.6 230 654.8 228.8 642.8C227.9 633.7 227.9 630.2 228.9 627.1C230.6 621.3 232.6 621.9 236 629.4C238.9 635.7 245 657.1 245 661.3C245.1 664.4 247.5 668.6 248.4 667.1C248.8 666.5 249.5 663.7 249.9 660.9C251.3 652 246.3 634.7 240 626.9C237.3 623.5 237.1 622 239.2 622C240.8 622 245.9 630.3 248.4 636.8C252 646.5 253.3 653.9 252.8 661L252.4 667.3L255.1 664.2C260.8 657.8 260.8 652.4 254.8 627.2C253.1 619.9 252 613.7 252.3 613.4C253.5 612.1 256 614 256 616.1C256 619.8 259.9 624.8 264.6 627.1C268.4 628.9 270.3 629.2 276.8 628.8C289.5 628 296.8 622.5 298 612.7C299 605.1 297.2 603.8 283.5 602.6C273.3 601.7 259.4 595.3 256.2 590.1C255.5 588.9 253.1 586.7 250.8 585C247 582.2 246.1 582 238.6 582.1ZM472.8 675.1C472.6 675.1 468.9 677.1 464.5 679.6C460.1 682 456.1 684.1 455.6 684.3C455.1 684.4 455.5 686.1 456.4 687.9C457.7 690.3 458.6 691 459.8 690.5C460.7 690.1 462.9 689.4 464.7 689C468.3 688.1 477 683.3 477 682.2C477 681.8 476.1 680 475 678.2C473.9 676.5 472.9 675 472.8 675.1ZM493.5 687.8C494 689.5 493.5 690.7 491.2 692.6L488.2 695.2L492.8 701.9C498.9 710.8 498.6 710.5 501.4 708.6C502.8 707.7 504.4 707 505 707C506.5 707 514 714 514 715.5C514 716.2 512.9 718.4 511.4 720.5L508.9 724.2L511.4 728.1C514.2 732.2 514.6 735.3 513 739.4C511.7 742.8 506.4 746 501.9 746C498.9 746 497.5 745.2 493.7 741.3L489.1 736.6L483.6 738C479.1 739.1 477.8 739.1 476.5 738C475.7 737.3 475 736.3 475 735.8C475 735.2 473.9 733.5 472.5 731.8C469.2 727.9 469.3 726.6 473.3 723.9C475 722.7 476.7 721.5 476.9 721.4C477.2 721.2 469.5 710.5 466.9 707.6C466.4 707 463.8 707.2 460.4 708C454.7 709.4 454.7 709.4 452.4 706.6C451.1 705.1 449.7 702.8 449.4 701.4C448.6 698.3 450.7 693.2 453.1 692.5C455.3 691.8 455.5 690.2 453.6 687.7C452.3 686.1 451.8 686.2 443.6 689.1C438.9 690.9 435 692.8 435 693.5C435 696.5 459.8 730.8 467.6 738.5C480.6 751.5 496.8 755.7 511.8 750.1C519.9 747.1 523.2 743.1 523.8 735.5C524.3 729.4 522.9 724.5 518.6 717.5C514.8 711.4 503.5 695.7 497.8 688.7C491.1 680.4 491.4 680.5 493.5 687.8ZM505.1 682.2C504.8 682.2 503 682.5 501.3 682.7C499.5 682.9 498 683.5 498 684C498 684.4 499.7 686.9 501.8 689.5L505.5 694.1L514.3 694.4C524.5 694.8 524.5 694.9 513.1 687.1C509 684.3 505.4 682.1 505.1 682.2ZM273.9 688.6C266.4 691 266.1 691.2 264.2 695.8C261.9 701.3 257.8 714.2 258.3 714.6C258.5 714.8 262.1 713.2 266.2 711.1C274.2 707.1 287.7 703 299.3 701L306 699.8L306 691.3L299.8 689C296.3 687.8 293.1 686.4 292.6 685.9C290.7 684.1 285.3 684.9 273.9 688.6ZM262 692.2C254.3 702.8 250.7 717.3 249.4 742.2C248.9 752.4 249.1 756.3 250.5 762.7C252.4 771.2 260.3 789 264 793L266.2 795.5L264.4 792.5C261.5 787.7 255.4 774.8 254.1 770.7C252.2 765.1 250.3 751.7 250.6 747.1C252.2 726 257.6 702.7 263.4 692.4C266.5 686.8 265.9 686.8 262 692.2ZM311.8 693C310.6 693 310.6 727.7 311.7 742C312 746.1 312.2 750.2 312.2 751C312.2 754.4 320.3 769.1 325 774.4C332.7 782.7 339.5 786.2 349.1 786.8C365.9 787.8 375.1 780.9 380.8 763.4C383.9 753.9 383.3 726.7 379.6 708.5L378.4 702.5L372.2 702.2C366.2 701.9 366 702 366 704.4C366 706.6 366.3 706.8 369.3 706.3C372.9 705.7 374.6 707 375.4 711C375.6 712.4 376.2 714.9 376.5 716.7C377.7 722.3 376.5 724.8 371.9 726L367.7 727.1L368.4 732.3C368.7 735.2 369 738.4 369 739.5C369 741.3 369.5 741.5 372.8 741.2C377.8 740.7 378.7 742 379.8 751.1C380.7 757.8 380.6 758.7 378.8 760.7C377.7 761.9 374.7 763.4 372.1 764C368.4 764.9 367.2 765.7 366.1 768.2C364.1 772.7 357 775.6 351.9 774.1C349.8 773.5 347 771.6 345.7 769.9C343.7 767.3 342.4 766.7 336.3 765.8C332.5 765.3 328.7 764.5 328.1 764C326.2 762.9 324 751.2 325.1 748.3C326 745.8 329.6 743.9 331.9 744.8C333.1 745.2 333.2 744.4 332.7 740.5C332.3 737.9 332 733.8 332 731.4C332 727.3 331.8 726.9 328.3 725.5C323.5 723.5 323 722.6 323 715.5C323 708.4 323.9 706.7 327.4 706.7C330 706.7 330.1 706.5 329.8 702.2L329.5 697.7L321 695.4C316.3 694.1 312.2 693.1 311.8 693ZM430.8 694.1C428 693.1 440.6 712.9 455.7 733.4C470.6 753.5 487.5 761.3 506 756.5C509.5 755.6 513.8 754.1 515.5 753.3C519.1 751.5 524 747 524 745.6C524 745.1 522.5 746 520.7 747.8C516.5 751.9 510.3 754 501 754.7C487.7 755.7 474.7 750.1 464.3 739C459.2 733.5 447.5 717.8 437.2 702.5C434.2 698.1 431.3 694.3 430.8 694.1ZM419.3 696.5C413.8 697.8 406 703.2 406 705.6C406 706.4 407.4 710.7 409.1 715.1L412.2 723.1L417.7 718C420.7 715.2 425.3 711.5 427.9 709.8C430.4 708.1 432.7 706.5 432.9 706.3C433.2 706.1 432.1 703.5 430.4 700.5C427.3 694.6 427.2 694.6 419.3 696.5ZM515.5 696.6C513.9 696.5 511.5 696.6 510.2 696.9C508 697.5 508.1 697.7 512.7 704.2C518 711.6 517.6 711.4 533.7 712.3L539.8 712.6L537.8 710.1C536.7 708.7 533.6 705.1 530.9 702.2C526.8 697.8 525.4 697 522.3 696.9C520.2 696.8 517.2 696.7 515.5 696.6ZM485.5 697.1C485 697.2 481 699.2 476.8 701.7L469.2 706.2L474.3 713.5C477.2 717.6 480 720.9 480.6 721C481.9 721 492.7 715.6 495.3 713.6C497 712.3 496.9 711.9 493.6 707.6C491.7 705 489.3 701.6 488.3 700C487.4 698.3 486.1 697.1 485.5 697.1ZM333.8 698.4C332.3 697.9 332 698.6 332 702.4C332 704.9 332.5 707.2 333.1 707.6C336.6 709.7 361.6 709.7 363.8 707.6C364 707.3 364 706 363.6 704.6C363.1 702.4 362.3 702.1 357.2 701.5C354.1 701.2 347.9 700.5 343.5 699.9C339.1 699.4 334.7 698.7 333.8 698.4ZM399.4 700.2C398.9 700.2 394.8 700.6 390.3 700.9C385.8 701.3 381.8 701.8 381.5 702.2C380.7 703 383.8 706 385.5 706C386.2 706 390.7 707.8 395.5 710C400.3 712.2 404.4 714 404.6 714C405.4 714 402 706.6 400.4 704.9C399.6 704 399.2 702.5 399.6 701.6C399.9 700.7 399.8 700.1 399.4 700.2ZM306 706L302.2 706.1C298.5 706.2 297.4 706.4 287 709.3C277.6 711.8 262.2 718.9 257.8 722.7C256.1 724.2 255.3 727.3 254.5 735.8C254.2 738.8 253.8 741.6 253.4 742.1C252.4 743.8 254.1 743 262.3 738.2C277 729.6 285.3 725.7 295.5 722.4L305.5 719.3L305.7 712.6L306 706ZM361.5 710.6C352.8 712.2 342.7 712.3 336 710.9C330.6 709.8 327.7 710.7 330.2 712.7C332.8 714.7 341.7 717.1 348.6 717.7C354.3 718.2 357.1 717.8 362.6 716C370.1 713.6 372 712.5 372 710.4C372 708.8 370.8 708.8 361.5 710.6ZM385.1 711.5C382.7 710.8 382.7 710.9 383.3 715.5C383.7 718.1 384 721.4 384 722.7C384 724.1 384.7 725.3 385.8 725.6C390.9 727.4 400.3 732.3 406.4 736.4C410.2 738.9 413.4 741 413.5 741C413.7 741 412.4 736.7 410.7 731.4L407.5 721.8L397.5 717C392 714.3 386.4 711.9 385.1 711.5ZM436 711C432.6 711 415 727.4 415 730.5C415 732.4 417.8 741.9 418.6 742.9C418.8 743.1 421.1 741.1 423.8 738.3C426.4 735.5 431.9 730.6 436 727.5C440.1 724.3 443.4 721.4 443.3 720.9C443.1 720.5 441.6 718.1 439.8 715.6C438.1 713 436.4 711 436 711ZM250.5 712.2C249.2 710.9 243.5 732.5 242.2 744C239.9 764.1 244.5 786.1 254.9 803.8C260.5 813.3 274.3 829.4 282.4 835.9C293.5 844.7 315.2 857.1 327 861.2C344.4 867.3 367.7 868.3 385 863.5C404.1 858.3 416.4 847.7 423.4 830.5C425.6 824.9 425.7 824.1 424.6 818.5L423.4 812.6L421 816C417.2 821.6 405.9 832.9 401 836.2C394.8 840.4 385.5 844.5 379 845.9C371.2 847.6 350.7 847.3 339.8 845.5C325 842.9 311.7 838 299 830.3C270.5 813.1 248.9 781.7 246.4 753.8C245.7 745.4 247.3 726 249.5 718C250.3 715 250.7 712.4 250.5 712.2ZM522 717.7C522 718.2 522.7 719.5 523.5 720.7C528.4 727.7 529.5 739.2 526 746.5C521.9 755 508.5 760.4 491.8 760.2C483.8 760.1 477.1 757.3 467.2 749.8C459.5 743.9 459.3 744 449.5 753.5C441.6 761.2 436.1 768.7 431.5 777.8C427.8 785.3 427.5 786.5 427.8 793.6C428 797.6 428.1 797.8 432.8 799.1C439.3 801 453.1 800.7 460.5 798.6C474.8 794.4 489.8 784.6 502.5 771.4C510.2 763.3 516.1 759.9 530.2 755.4C541.1 751.9 547.1 748.8 551.3 744.5L554.7 741L549.6 730.5C544.9 720.8 544.2 719.9 541 719C535.6 717.6 522 716.7 522 717.7ZM304.8 722C298.9 722.1 273.9 733.5 260.6 742L252.7 747.1L253.3 754.4C253.7 758.5 254.4 763 255 764.5C255.9 767 256.2 767.1 257.8 765.8C263.1 761.3 285.8 749.6 297.5 745.4C302.5 743.7 306.4 741.9 306.3 741.6C306.1 741.3 306 736.7 306 731.5C306 724.6 305.7 722 304.8 722ZM442.5 725.7C435.3 729.4 420 744 420 747.2C420 748.1 421.1 753.3 422.4 758.7C423.8 764.1 425.1 769.8 425.5 771.4C426.1 774.2 426.3 774 432 765.4C438.2 755.9 445.8 748 453.2 743.3L457.8 740.4L453.3 734.4C450.9 731.2 448.5 728.3 448 728.2C447.4 728 447 727.2 447 726.5C447 724.3 445.7 724.1 442.5 725.7ZM506.7 726.1C506.6 726.2 503.7 728.2 500.3 730.5C496.9 732.9 493.5 735 492.8 735.3C491.9 735.7 492.9 737.2 495.8 740C499.6 743.7 500.6 744.1 503.3 743.6C510.1 742.2 512.8 735.7 509 729.5C507.8 727.6 506.8 726.1 506.7 726.1ZM338.7 728.7L334 727.9L334.6 735.2C334.9 739.2 335.3 743.1 335.6 743.7C336 745.3 347.5 745.3 358.5 743.7L366.5 742.5L366.2 738.5C366.1 736.3 365.7 733 365.4 731.2L364.9 727.9L360.2 728.7C357.6 729.1 352.8 729.5 349.5 729.5C346.2 729.5 341.4 729.1 338.7 728.7ZM389.8 729.8L385 728L385 747.9L390.8 750.8C397.8 754.3 408.1 761.5 414.8 767.5C417.5 770 420 772 420.3 772C420.8 772 419 763.3 415.9 750.5C414.7 745.1 411.9 742.4 400 735.1C397 733.2 392.4 730.9 389.8 729.8ZM361.5 745.6C357.7 746.4 349 747 342.3 747.1C335.5 747.2 330 747.4 330 747.5C330 747.7 332.6 749.1 335.8 750.6C343.3 754.2 356.7 755.2 363.6 752.5C368 750.8 373 746.8 373 745C373 743.8 370.4 743.9 361.5 745.6ZM556.2 744.1C555.8 744.1 552.4 746.3 548.7 749C544 752.4 538.9 754.9 532.2 757.1C517.7 761.9 512.4 764.9 503 774C494.1 782.7 479.6 793.2 472 796.7C459.9 802.2 443.9 804.3 434.2 801.7C428.4 800.1 427.5 800.6 428.5 804.9C430.2 812.8 455.7 822 476.5 822.2C503.2 822.6 534.7 810.1 548.2 793.9C562.9 776.3 563.3 775.5 563.2 766.7C563 759.4 562.1 755.6 558.8 748.2C557.8 745.9 556.6 744 556.2 744.1ZM307.2 753.3L306.5 749.2L300 751.5C289.1 755.2 258 771.7 258 773.7C258 774.1 259.9 778.1 262.2 782.7C266.9 792 265.8 791.3 281.5 794.8C291.2 796.9 318.8 796.8 328.8 794.6C332.8 793.7 338 793 340.3 792.9L344.5 792.8L341.1 791.8C329.8 788.6 318.3 778.1 312 765.5C309.8 761 307.6 755.5 307.2 753.3ZM385.3 756.2C385.2 760.8 382.6 770 379.8 775.5C376 783.3 371.2 788.6 365.9 790.9L361.9 792.7L367.7 793.4C370.9 793.7 375.3 794.3 377.5 794.7C383.2 795.7 409.4 795.7 416.3 794.7L422 793.9L422 788.5C422 783.8 421.5 782.6 418 778.2C413.3 772.1 400.8 762.4 392.3 758.1C385.2 754.5 385.3 754.6 385.3 756.2ZM556 788.3C545.5 801 539 806.8 529.2 811.8C515.7 818.8 493.6 824.5 478.9 824.9C464.8 825.3 448.3 821.4 436.1 814.9C432 812.7 429.2 811.5 429.8 812.3C431.3 814.1 440 818.6 446.5 821C464.8 827.8 482.5 828.2 504.5 822.5C523.9 817.5 534.4 812.3 544.6 802.8C550 797.7 561.2 784.4 564.3 779.2C566.2 776.3 564 778.7 556 788.3ZM565.4 783C565.3 783 562.6 786.3 559.4 790.2C544 809.4 535.9 815.3 517.5 821.3C497.5 827.8 480 830.1 466.3 828.2C456 826.7 445.5 823.8 438.6 820.4C435.9 819.1 433.4 818.2 433.2 818.5C432.9 818.8 432.1 818.1 431.3 817C429 813.7 428.3 814.7 429.1 820.2C431.2 833.6 431.9 834.7 441.9 838.9C453.3 843.7 457.6 844.4 475.5 844.3C495.2 844.3 508.2 841.9 525.5 835.5C536.3 831.4 550 823 554.6 817.7C563 808 563.5 806.6 564.8 792.2C565.2 787.1 565.5 783 565.4 783ZM274.3 795.5C271.9 794.8 270 794.6 270 795.1C270 796.6 282.1 809 287.9 813.3C311.8 831.4 331.5 838.3 359.5 838.4C374.4 838.4 377.5 838 386.5 834.2C401 828.2 419.7 809.7 421.6 799.6L422.3 795.7L419.4 796.4C412.7 798.2 385.6 798.2 373.5 796.5C356.4 794.1 338.5 794.3 328 797C321.2 798.8 300.8 799.3 289.5 798C283.5 797.3 276.6 796.2 274.3 795.5ZM274.6 805.1C269 799.8 268.8 799.7 271.9 803.7C279.1 813.1 293.8 824.9 309 833.3C322.5 840.8 345.8 845.5 365.4 844.8C379.2 844.3 385.8 842.4 396.1 836.3C407.4 829.6 420.6 815.4 422.5 808C423 805.9 422.6 806.1 419.8 809.5C400.3 833.2 385.4 841 359.5 841C333 841 309.1 832.7 287 815.7C283.4 812.9 277.8 808.2 274.6 805.1Z" />
		<path id="Layer" class="shp0" d="M340 189.5C340 189.8 337.6 192.9 334.7 196.3C319.7 214 309.9 233.1 301.5 261C297.3 274.9 296.1 277.9 296 274.2C296 271.9 303 249.1 305.5 243.5C306.3 241.8 308.5 236.5 310.6 231.6C316.2 218.3 323.6 206.5 334.5 193.8C338.1 189.5 340 188 340 189.5Z" />
		<path id="Layer" class="shp0" d="M496 277C496 277.5 494.8 278.2 493.3 278.6C491.7 278.9 488.2 279.9 485.4 280.6C470.7 284.7 463.5 285.1 429 283.5C419.6 283.1 397.5 286.1 387 289.2C373.6 293.1 372 293.4 372 292.3C372 291.8 375.5 290.3 379.8 289.1C403.2 282.3 417.8 280.8 445 282.5C458.5 283.4 472.3 282 485.5 278.6C496.4 275.7 496 275.8 496 277Z" />
		<path id="Layer" class="shp0" d="M493 280.5C493 282 478 286.8 464.5 289.4C456.4 291 434.4 293.2 428 293.1C426.1 293 420.7 293.7 416 294.5C406.1 296.3 406 296.3 406 295.2C406 293.7 424.5 291 441 290C457.7 289 472.3 286.4 483.5 282.6C490.7 280.2 493 279.6 493 280.5Z" />
		<path id="Layer" class="shp0" d="M489 644.1C491.8 644.1 483.6 650 469.5 658.3C439.3 675.8 410.4 686.6 383 690.5C370.9 692.2 350 692.5 350 691C350 690.4 354.1 690 360.3 690C372 690 389.7 687.8 401.5 684.9C426.1 678.8 455.1 665.6 479.5 649.4C483.9 646.5 488.2 644.1 489 644.1Z" />
		<path id="Layer" fill-rule="evenodd" class="shp0" d="M415 408.1C417.4 412.7 417.6 420.3 415.5 425.3C408.6 441.9 384.2 442.9 376 427C369.7 414.8 374.8 402.6 388.5 397.3C398 393.6 410.2 398.6 415 408.1ZM379.3 407.3C373.2 416.1 376.7 429.2 386.3 433.9C395.6 438.4 406.2 435.8 411.7 427.6C417.5 418.9 414.3 405.7 405.2 401.2C395.5 396.2 385.3 398.6 379.3 407.3Z" />
		<path id="Layer" class="shp0" d="M476.9 460.4C483.4 473.7 489.9 492.7 490.7 500.6C491.3 506.6 489.8 511.8 486.3 516.1C483.6 519.3 478.2 522 474.4 522C470.6 522 471.6 520.3 475.8 519.6C480.8 518.8 484.8 515.7 487.1 510.6C489.6 505.2 489.5 502.5 486.4 491.3C482.5 476.8 474.4 457.6 468.9 449.8C467.8 448.4 467 446.6 467 445.9C467 442.7 471.6 449.4 476.9 460.4Z" />
		<path id="Layer" class="shp0" d="M465.1 453.2C467.7 454 475.8 472.9 481 489.9C484 499.9 482.7 507.2 476.7 513.8C474.3 516.4 465.2 519.4 462.7 518.4C459.6 517.3 461 516 465.3 516C471.1 516 476.2 512.5 478.8 506.7C482.4 498.4 478.2 483 464.2 453.6C463.9 453.1 464.4 453 465.1 453.2Z" />
		<path id="Layer" class="shp0" d="M596.6 387.8C596.3 388.3 590.5 389 583.6 389.3C572.2 389.9 557.2 391.7 556 392.7C555.8 392.9 556.2 393.5 557 394C559.3 395.4 558 395.8 549.1 396.1C543.2 396.4 540.5 396.1 540.2 395.2C539.8 394 549.4 389.3 554.5 388.3C557.3 387.7 557.4 387.8 556 389.5C555.2 390.5 555 391.1 555.6 390.7C556.2 390.4 558.9 389.8 561.6 389.4C564.3 389.1 568.8 388.4 571.5 388C578.5 386.9 597.2 386.8 596.6 387.8Z" />
		<path id="Layer" class="shp0" d="M660 472.5C660.7 473.3 661 474.9 660.7 476.1C660.4 477.3 660.6 479.3 661.2 480.6C663.7 486 656.6 490.2 651.2 486.4C649 484.9 648.2 480.6 649.9 479.6C650.3 479.3 650.5 477.9 650.2 476.5C650 475.1 650.3 473.3 651 472.5C652.6 470.6 658.4 470.6 660 472.5Z" />
		<path id="Layer" class="shp0" d="M150.4 516.5C150 517.3 148.5 518.7 146.9 519.6C143.2 521.5 140.4 520.1 138.5 515.6C136.8 511.7 138.1 505.7 140.8 504.1C147 500.5 153.4 508.7 150.4 516.5Z" />
		<path id="Layer" class="shp0" d="M589.5 628.5C593.8 632.7 592.6 639.6 586.9 642.5C584 644.1 583.8 644 580.3 640.5C577.1 637.3 576.8 636.5 577.3 633.2C577.7 631.2 578.9 628.7 580.1 627.7C583.1 625.3 586.7 625.6 589.5 628.5Z" />
		<path id="Layer" class="shp0" d="M670.5 739.6C671.6 740.7 671.9 742.1 671.5 744C671.2 745.6 671.3 747.1 671.9 747.5C673.5 748.4 673.2 751.1 671.3 753.2C669.3 755.4 664.3 755.5 661.8 753.3C659.9 751.6 659.3 747.5 660.9 746.6C661.3 746.3 661.5 744.9 661.2 743.5C661 742.1 661.3 740.3 662 739.5C663.6 737.5 668.4 737.6 670.5 739.6Z" />
		<path id="Layer" class="shp0" d="M610 740.9C610 741.4 609.4 742 608.8 742.3C604.9 743.6 613.1 744.7 635.8 745.6C644.8 746 651 746.7 651 747.3C651 748.6 612.1 747.5 607 746.1C603.6 745.1 603.6 745.2 605.8 746.7C607 747.5 608 748.8 608 749.6C608 750.5 605.9 750 600.8 747.8C589.2 743 588.2 741.3 596.3 740.7C607 740 610 740 610 740.9Z" />
	</g>
</svg>